<svg width="133" height="219" viewBox="0 0 133 219" fill="none" xmlns="http://www.w3.org/2000/svg">
<path opacity="0.12" d="M133 151.394C133 140.708 130.698 131.039 125.583 124.932C121.746 119.843 120.723 117.299 114.84 113.482C108.958 109.411 108.19 108.393 101.029 105.34C97.4481 103.559 94.8904 102.541 93.6115 102.032L85.6827 98.9789L78.5212 96.18H78.2654V66.1556C84.6596 68.4456 89.0077 73.5344 91.5654 81.4222L130.442 59.7944C120.212 37.6578 102.819 25.19 78.2654 22.3911V0H60.3615V21.8822C44.5038 23.1544 31.4596 28.7522 21.2288 38.4211C10.9981 47.8355 5.88269 60.5578 5.88269 76.5878C5.88269 92.8722 10.9981 105.086 21.9962 113.991C32.9942 122.388 41.9462 126.968 58.0596 132.82L60.3615 133.583V163.862C50.3865 161.318 43.4808 154.448 39.6442 143.507L0 165.643C8.44038 190.07 30.4365 205.082 60.3615 207.118V229H78.2654V206.863C111.771 203.047 133 183.2 133 151.394ZM50.3865 76.8422C50.3865 70.7356 53.7115 66.9189 60.3615 65.1378V88.2922C53.7115 84.9844 50.3865 81.1678 50.3865 76.8422ZM78.2654 140.708C85.1712 143.761 88.4962 147.578 88.4962 152.158C88.4962 158.01 85.1712 161.827 78.2654 163.608V140.708Z" fill="white"/>
</svg>
