<svg width="19" height="16" viewBox="0 0 19 16" fill="none" xmlns="http://www.w3.org/2000/svg">
<path d="M13.4398 5.22922C13.4398 6.08095 13.449 6.78562 13.4367 7.4903C13.4275 8.06322 13.59 8.57181 13.9364 9.02526C14.0376 9.157 14.1449 9.28874 14.2307 9.42968C14.3656 9.64414 14.3319 9.80039 14.1387 9.96277C13.6605 10.3672 13.1792 10.7716 12.701 11.176C12.4496 11.3905 12.2596 11.3844 12.0021 11.173C11.625 10.8635 11.3185 10.4897 11.0579 10.0792C10.9935 9.97809 10.9567 9.9689 10.8648 10.0578C10.4693 10.4438 10.0555 10.8084 9.54657 11.032C8.51655 11.4824 7.44975 11.5406 6.38294 11.1944C5.5859 10.9371 5.02491 10.3856 4.7674 9.58593C4.34742 8.27463 4.47311 7.03379 5.40503 5.9584C5.94763 5.33032 6.6711 4.99637 7.45894 4.7911C8.30503 4.56744 9.17564 4.49085 10.0432 4.402C10.1382 4.39281 10.2333 4.36829 10.3283 4.37442C10.549 4.39587 10.5827 4.28557 10.5705 4.09868C10.5521 3.85051 10.5643 3.59622 10.5459 3.34805C10.4908 2.67402 10.129 2.27879 9.46074 2.16237C9.05302 2.0919 8.66063 2.15011 8.29277 2.337C7.88812 2.53921 7.64594 2.87317 7.53865 3.30822C7.45894 3.62686 7.34245 3.71264 7.01751 3.68201C6.42892 3.62379 5.84034 3.56252 5.25176 3.49818C4.96973 3.46754 4.84404 3.2929 4.90229 3.0141C5.14753 1.83454 5.82501 0.982807 6.92554 0.517111C8.45218 -0.129348 10.0156 -0.178369 11.5698 0.41907C12.7286 0.86332 13.3264 1.74569 13.4091 2.97733C13.4674 3.77392 13.4275 4.57663 13.4398 5.22922ZM10.5705 6.62631C10.5705 6.50069 10.5643 6.29848 10.5735 6.09627C10.5797 5.97985 10.5459 5.94002 10.4233 5.94308C9.99414 5.96147 9.56497 5.98598 9.14499 6.08402C8.02913 6.34444 7.47734 7.02766 7.54171 8.07854C7.57237 8.59939 7.7471 9.06202 8.26825 9.27955C8.79552 9.50014 9.28907 9.37759 9.72438 9.02526C10.0033 8.79853 10.1934 8.50441 10.3344 8.17659C10.5398 7.70783 10.5582 7.20843 10.5705 6.62631Z" fill="#252021"/>
<path d="M9.05236 15.0379C5.70173 14.992 2.72203 13.938 0.168435 11.7382C0.0764687 11.6586 -0.058415 11.5636 0.0274201 11.4318C0.125517 11.2817 0.266532 11.389 0.376891 11.4502C1.75638 12.2192 3.20945 12.7891 4.73915 13.1751C6.72868 13.6745 8.74887 13.8553 10.7967 13.6837C12.6176 13.5275 14.3741 13.1047 16.0632 12.4123C16.1767 12.3663 16.287 12.3295 16.4096 12.3479C16.6058 12.3724 16.6917 12.5409 16.5966 12.7156C16.5568 12.7922 16.4924 12.8412 16.4219 12.8902C15.0823 13.8063 13.5955 14.37 12.0198 14.7162C11.5293 14.8235 11.0358 14.9031 10.5361 14.9583C10.0456 15.0073 9.55204 15.0379 9.05236 15.0379Z" fill="white"/>
<path d="M16.3022 11.7232C15.8884 11.7293 15.4807 11.7814 15.0699 11.8182C14.984 11.8274 14.8737 11.8703 14.8369 11.7538C14.8032 11.6436 14.9013 11.5853 14.981 11.5333C15.5144 11.1901 16.1091 11.0614 16.7314 11.0277C17.1514 11.0063 17.5652 11.0308 17.9729 11.1503C18.163 11.2085 18.2519 11.3249 18.2458 11.5149C18.2151 12.5596 17.8626 13.4696 17.0962 14.2018C17.0717 14.2263 17.041 14.2478 17.0104 14.2662C16.9491 14.2999 16.8816 14.3458 16.8142 14.2815C16.7559 14.2263 16.7774 14.162 16.805 14.0976C16.9583 13.7208 17.1115 13.347 17.228 12.9579C17.3047 12.7006 17.3844 12.4432 17.3874 12.1705C17.3905 11.9315 17.3139 11.8335 17.0839 11.7753C16.8264 11.714 16.5628 11.7201 16.3022 11.7232Z" fill="white"/>
</svg>
