<svg width="15" height="19" viewBox="0 0 15 19" fill="none" xmlns="http://www.w3.org/2000/svg">
<path d="M14.2677 6.09239C11.5283 8.47798 11.7003 11.2725 14.7675 13.3011C14.1606 15.0375 13.3427 16.6896 11.7458 17.7217C11.2459 18.0463 10.3079 18.0625 9.73019 17.8289C8.33454 17.2609 7.04275 17.2349 5.68929 17.8678C4.90383 18.2378 4.05995 18.2086 3.43353 17.5887C0.765562 14.9629 -0.513245 11.8146 0.191073 8.05604C0.671437 5.50492 3.40107 3.4374 6.33519 4.82981C7.25048 5.26149 8.02945 5.06026 8.88631 4.72595C11.0739 3.87233 13.0278 4.37541 14.2677 6.09239Z" fill="white"/>
<path d="M10.9568 0C11.1093 2.25901 9.35341 4.22266 7.42222 4.01818C7.16581 2.0383 8.86007 0.0811426 10.9568 0Z" fill="white"/>
</svg>
