<svg width="40" height="40" viewBox="0 0 40 40" fill="none" xmlns="http://www.w3.org/2000/svg">
<path d="M3.33398 33.3333H36.6673V36.6666H3.33398V33.3333ZM6.66732 20H10.0007V31.6666H6.66732V20ZM15.0007 20H18.334V31.6666H15.0007V20ZM21.6673 20H25.0007V31.6666H21.6673V20ZM30.0007 20H33.334V31.6666H30.0007V20ZM3.33398 11.6666L20.0007 3.33331L36.6673 11.6666V18.3333H3.33398V11.6666ZM20.0007 13.3333C20.4427 13.3333 20.8666 13.1577 21.1792 12.8452C21.4917 12.5326 21.6673 12.1087 21.6673 11.6666C21.6673 11.2246 21.4917 10.8007 21.1792 10.4881C20.8666 10.1756 20.4427 9.99998 20.0007 9.99998C19.5586 9.99998 19.1347 10.1756 18.8221 10.4881C18.5096 10.8007 18.334 11.2246 18.334 11.6666C18.334 12.1087 18.5096 12.5326 18.8221 12.8452C19.1347 13.1577 19.5586 13.3333 20.0007 13.3333Z" fill="#006156"/>
</svg>
