<svg width="16" height="16" viewBox="0 0 16 16" fill="none" xmlns="http://www.w3.org/2000/svg">
<path fill-rule="evenodd" clip-rule="evenodd" d="M2 11.2466V6.17126H14V11.2873C14 13.3799 12.6828 14.6666 10.5752 14.6666H5.41822C3.33041 14.6666 2 13.3533 2 11.2466ZM5.30626 9.60662C5.00329 9.62062 4.75302 9.37996 4.73985 9.07396C4.73985 8.76729 4.97695 8.51396 5.27991 8.49996C5.57629 8.49996 5.81998 8.73396 5.82656 9.03329C5.83974 9.34062 5.60263 9.59396 5.30626 9.60662ZM8.01318 9.60662C7.71021 9.62062 7.45994 9.37996 7.44676 9.07396C7.44676 8.76729 7.68387 8.51396 7.98683 8.49996C8.28321 8.49996 8.5269 8.73396 8.53348 9.03329C8.54665 9.34062 8.30955 9.59396 8.01318 9.60662ZM10.7003 12.0599C10.3974 12.0533 10.1537 11.7999 10.1537 11.4933C10.1471 11.1866 10.3908 10.9339 10.6937 10.9273H10.7003C11.0099 10.9273 11.2602 11.1806 11.2602 11.4933C11.2602 11.8066 11.0099 12.0599 10.7003 12.0599ZM7.44676 11.4932C7.45994 11.7999 7.71021 12.0406 8.01318 12.0266C8.30955 12.0139 8.54666 11.7606 8.53348 11.4539C8.5269 11.1539 8.28321 10.9199 7.98683 10.9199C7.68387 10.9339 7.44676 11.1866 7.44676 11.4932ZM4.73326 11.4932C4.74643 11.7999 4.99671 12.0406 5.29967 12.0266C5.59605 12.0139 5.83315 11.7606 5.81998 11.4539C5.81339 11.1539 5.56971 10.9199 5.27333 10.9199C4.97036 10.9339 4.73326 11.1866 4.73326 11.4932ZM10.1603 9.0673C10.1603 8.76063 10.3974 8.51396 10.7003 8.5073C10.9967 8.5073 11.2338 8.74663 11.247 9.04063C11.2536 9.3473 11.0165 9.60063 10.7201 9.60663C10.4171 9.6133 10.1668 9.37996 10.1603 9.07396V9.0673Z" fill="#006156"/>
<path d="M2.00195 6.17121C2.01052 5.77987 2.04345 5.0032 2.10536 4.7532C2.42149 3.3472 3.49504 2.45387 5.02961 2.32654H10.9703C12.4917 2.46054 13.5785 3.35987 13.8946 4.7532C13.9558 4.99654 13.9888 5.77921 13.9973 6.17121H2.00195Z" fill="#97D3CA"/>
<path d="M5.53643 4.39331C5.82622 4.39331 6.04357 4.17398 6.04357 3.87998V1.84731C6.04357 1.55331 5.82622 1.33331 5.53643 1.33331C5.24664 1.33331 5.0293 1.55331 5.0293 1.84731V3.87998C5.0293 4.17398 5.24664 4.39331 5.53643 4.39331Z" fill="#006156"/>
<path d="M10.4632 4.39331C10.7464 4.39331 10.9703 4.17398 10.9703 3.87998V1.84731C10.9703 1.55331 10.7464 1.33331 10.4632 1.33331C10.1734 1.33331 9.95605 1.55331 9.95605 1.84731V3.87998C9.95605 4.17398 10.1734 4.39331 10.4632 4.39331Z" fill="#006156"/>
</svg>
