<svg width="40" height="40" viewBox="0 0 40 40" fill="none" xmlns="http://www.w3.org/2000/svg">
<path d="M19.9961 28.6985C15.128 28.6985 10.2815 28.6985 5.41337 28.6985C5.21778 28.6985 5.02218 28.6985 4.82659 28.6768C4.1746 28.5681 3.91381 28.1552 4.08767 27.525C4.82659 24.917 5.58724 22.2873 6.32615 19.6794C6.52175 19.0057 6.71735 18.332 6.89121 17.6582C7.04334 17.1149 7.3476 16.8324 7.93439 16.8541C15.9973 16.8541 24.0384 16.8541 32.1013 16.8541C32.6664 16.8541 32.9489 17.1149 33.1011 17.6365C34.0356 20.8964 34.9701 24.1564 35.8829 27.3946C36.1437 28.2856 35.7742 28.7203 34.7745 28.7203C29.8629 28.6985 24.9295 28.6985 19.9961 28.6985ZM20.0179 23.8087C20.0396 23.8521 20.0396 23.8956 20.0613 23.939C20.7785 23.7 21.5392 23.5696 22.1694 23.2219C23.8211 22.3308 23.9732 20.5705 22.5823 19.3534C21.2349 18.1798 18.5618 18.245 17.2795 19.4838C16.1711 20.5487 16.1711 21.7658 17.2795 22.8307C18.0619 23.5479 18.9964 23.7869 20.0179 23.8087Z" fill="#006156"/>
<path d="M20.0604 13.3333C25.1677 13.3333 30.2749 13.3333 35.4038 13.3333C36.4905 13.3333 37.3815 13.6376 37.9683 14.6156C38.968 16.2673 37.7945 18.4188 35.8602 18.484C35.3169 18.5057 34.9474 18.2232 34.8822 17.7668C34.8388 17.3322 35.143 16.9627 35.6646 16.854C36.3601 16.7236 36.6643 16.3759 36.5991 15.8326C36.5557 15.311 36.1862 15.0502 35.5125 15.0067C35.3821 15.0067 35.2517 15.0067 35.143 15.0067C25.0373 15.0067 14.9532 15.0067 4.84742 15.0067C4.58663 15.0067 4.3041 15.0285 4.04331 15.0719C3.60865 15.1589 3.39132 15.4414 3.36959 15.8761C3.34785 16.3324 3.54345 16.6367 3.99984 16.7671C4.13024 16.8106 4.28237 16.8323 4.41277 16.854C4.86916 16.9627 5.08648 17.267 5.08648 17.7016C5.08648 18.1363 4.73876 18.4405 4.28237 18.484C3.04359 18.5709 1.80482 17.506 1.67442 16.289C1.56576 14.8329 2.52201 13.5289 3.86944 13.3768C4.19544 13.355 4.52143 13.3333 4.84742 13.3333C9.91118 13.3333 14.9967 13.3333 20.0604 13.3333Z" fill="#006156"/>
</svg>
