<svg width="24" height="24" viewBox="0 0 24 24" fill="none" xmlns="http://www.w3.org/2000/svg">
<path d="M3 8.75C3 5.57 5.57 3 8.75 3H15.76C16.17 3 16.51 3.34 16.51 3.75C16.51 4.16 16.17 4.5 15.76 4.5H8.75C6.4 4.5 4.5 6.4 4.5 8.75V15.86C4.5 16.27 4.16 16.61 3.75 16.61C3.34 16.61 3 16.27 3 15.86V8.75Z" fill="#9DA8B6"/>
<path d="M18.1502 6.53999C14.9102 6.17999 11.5902 6.17999 8.34016 6.53999C7.42016 6.64999 6.68016 7.36999 6.57016 8.29999C6.19016 11.59 6.19016 14.91 6.57016 18.19C6.68016 19.12 7.42016 19.85 8.34016 19.95C11.5802 20.31 14.9002 20.31 18.1502 19.95C19.0702 19.85 19.8202 19.12 19.9202 18.19C20.3002 14.9 20.3002 11.58 19.9202 8.29999C19.8202 7.36999 19.0802 6.64999 18.1502 6.53999Z" fill="#9DA8B6"/>
</svg>
