<svg width="13" height="4" viewBox="0 0 13 4" fill="none" xmlns="http://www.w3.org/2000/svg">
<path d="M1.79724 3.48859C2.55779 3.48859 3.11402 2.89831 3.11402 2.17182C3.11402 1.44532 2.55779 0.855042 1.79724 0.855042C1.04804 0.855042 0.480469 1.44532 0.480469 2.17182C0.480469 2.89831 1.04804 3.48859 1.79724 3.48859Z" fill="white"/>
<path d="M6.24738 3.48859C7.00793 3.48859 7.56416 2.89831 7.56416 2.17182C7.56416 1.44532 7.00793 0.855042 6.24738 0.855042C5.49818 0.855042 4.93061 1.44532 4.93061 2.17182C4.93061 2.89831 5.49818 3.48859 6.24738 3.48859Z" fill="white"/>
<path d="M10.6975 3.48859C11.4581 3.48859 12.0143 2.89831 12.0143 2.17182C12.0143 1.44532 11.4581 0.855042 10.6975 0.855042C9.94833 0.855042 9.38075 1.44532 9.38075 2.17182C9.38075 2.89831 9.94833 3.48859 10.6975 3.48859Z" fill="white"/>
</svg>
