<svg width="14" height="13" viewBox="0 0 14 13" fill="none" xmlns="http://www.w3.org/2000/svg">
<path fill-rule="evenodd" clip-rule="evenodd" d="M12.953 1.25784C13.1599 1.05085 13.1599 0.715255 12.953 0.508268C12.746 0.30128 12.4104 0.30128 12.2034 0.508268L0.896203 11.8155C0.689215 12.0224 0.689215 12.358 0.896203 12.565C1.10319 12.772 1.43878 12.772 1.64577 12.565L3.79061 10.4202C4.72192 10.8498 5.7881 11.1302 6.92458 11.1302C8.77456 11.1302 10.4383 10.3872 11.6371 9.46708C12.2373 9.00643 12.7298 8.49482 13.0753 7.99691C13.4143 7.50849 13.6382 6.99492 13.6382 6.53665C13.6382 6.07838 13.4143 5.5648 13.0753 5.07638C12.7298 4.57847 12.2373 4.06686 11.6371 3.60622C11.4459 3.45945 11.2428 3.31718 11.0291 3.18172L12.953 1.25784ZM9.13563 5.07516L8.35969 5.8511C8.45903 6.05868 8.51465 6.29117 8.51465 6.53665C8.51465 7.41482 7.80275 8.12672 6.92458 8.12672C6.6791 8.12672 6.44661 8.07109 6.23904 7.97176L5.4631 8.7477C5.88205 9.02518 6.38444 9.18677 6.92458 9.18677C8.3882 9.18677 9.5747 8.00027 9.5747 6.53665C9.5747 5.99651 9.41311 5.49411 9.13563 5.07516Z" fill="#1D1E2C"/>
<path d="M7.35799 3.92179C7.442 3.93561 7.52856 3.91104 7.58876 3.85084L8.85311 2.58649C8.98547 2.45414 8.93043 2.22946 8.74937 2.18202C8.17044 2.03033 7.55844 1.9431 6.92458 1.9431C5.0746 1.9431 3.41088 2.68611 2.21204 3.60622C1.61184 4.06686 1.11935 4.57847 0.773817 5.07638C0.434863 5.5648 0.210938 6.07838 0.210938 6.53665C0.210938 6.99492 0.434863 7.50849 0.773817 7.99691C1.05847 8.40709 1.44285 8.82657 1.90503 9.21919C2.00219 9.30173 2.14606 9.29354 2.23621 9.20339L4.23878 7.20083C4.29898 7.14063 4.32354 7.05407 4.30973 6.97006C4.28652 6.82903 4.27446 6.68425 4.27446 6.53665C4.27446 5.07302 5.46096 3.88652 6.92458 3.88652C7.07218 3.88652 7.21696 3.89859 7.35799 3.92179Z" fill="#1D1E2C"/>
</svg>
