<svg width="29" height="24" viewBox="0 0 29 24" fill="none" xmlns="http://www.w3.org/2000/svg">
<path d="M24.1661 18.1234C24.1605 18.1877 24.1531 18.2519 24.1419 18.3156C24.163 18.4516 24.1736 18.5889 24.1736 18.728C24.1736 21.5476 19.8236 23.8332 14.4576 23.8332C9.09215 23.8332 4.74219 21.5476 4.74219 18.728C4.74219 18.5889 4.75275 18.4516 4.77386 18.3156C4.76268 18.2519 4.75523 18.1877 4.74964 18.1234C4.74467 18.061 4.74219 17.9986 4.74219 17.9362V12.8979L8.28228 14.7872L13.1248 17.3722C13.9688 17.8227 14.9799 17.8239 15.8252 17.3759L20.6757 14.8059L24.1736 12.9528V17.9362C24.1736 17.9986 24.1711 18.061 24.1661 18.1234Z" fill="#006156"/>
<path d="M4.02853 17.3267C3.89376 17.6736 3.71489 18.0037 3.54658 18.3369C3.52733 18.3756 3.30312 18.9034 3.20748 19.1225C3.09879 19.3708 2.97395 19.6129 2.84788 19.8531C2.82117 19.9043 2.75409 19.9679 2.70751 19.966C2.64603 19.9642 2.55846 19.9174 2.53175 19.8643C2.1175 19.0357 1.70946 18.204 1.30328 17.371C1.13932 17.0366 1.47221 16.5056 1.46351 16.4969C1.59021 16.2105 1.70325 15.9166 1.84796 15.6396C1.97465 15.3975 2.04111 15.1573 2.03924 14.8796C2.02993 13.0646 2.03303 9.37765 2.03366 7.56259C2.03366 7.4821 2.04235 7.40223 2.04918 7.28119C2.44046 7.47336 2.80689 7.6437 3.15903 7.83775C3.21679 7.86957 3.23977 8.00746 3.23977 8.09669C3.24412 9.75389 3.23667 13.2829 3.25095 14.9395C3.25219 15.161 3.32734 15.3937 3.4174 15.5997C3.60434 16.0252 3.84034 16.4295 4.02356 16.8563C4.0807 16.9911 4.08194 17.1895 4.02853 17.3267Z" fill="#006156"/>
<path d="M28.4332 8.94269L15.5889 15.7481C14.8945 16.1162 14.0642 16.115 13.3711 15.745L0.56462 8.90962C-0.113587 8.54773 -0.102408 7.56814 0.583873 7.22184L13.3984 0.753387C14.0679 0.415832 14.8567 0.415208 15.5262 0.752763L28.4165 7.25242C29.1034 7.59996 29.1133 8.58205 28.4332 8.94269Z" fill="#006156"/>
</svg>
