<svg width="265" height="199" viewBox="0 0 265 199" fill="none" xmlns="http://www.w3.org/2000/svg">
<path d="M83.432 195H84.416L85.244 192.528H88.784L89.624 195H90.656L87.752 186.42H86.384L83.432 195ZM87.02 187.284L88.508 191.7H85.532L87.02 187.284ZM92.0939 197.184H93.0899V193.968C93.4499 194.592 94.1819 195.108 95.2139 195.108C96.9419 195.108 98.0699 193.788 98.0699 191.868V191.772C98.0699 189.816 96.8579 188.616 95.2139 188.616C94.3019 188.616 93.4499 189.168 93.0899 189.78V188.724H92.0939V197.184ZM95.1179 194.28C93.8939 194.28 93.0539 193.524 93.0539 191.916V191.82C93.0539 190.212 93.9419 189.444 95.1059 189.444C96.1619 189.444 97.0379 190.236 97.0379 191.82V191.916C97.0379 193.44 96.3659 194.28 95.1179 194.28ZM99.6174 195H100.613V191.556C100.613 190.008 101.417 189.612 102.677 189.552V188.616C101.549 188.652 101.009 189.144 100.613 189.852V188.724H99.6174V195Z" fill="#44A798"/>
<path d="M167.656 195.108C168.964 195.108 170.032 194.388 170.032 192.672V186.42H168.988V192.624C168.988 193.776 168.448 194.256 167.596 194.256C167.08 194.256 166.768 194.148 166.456 194.016V194.88C166.684 195 167.008 195.108 167.656 195.108ZM174.171 195.108C175.179 195.108 175.875 194.592 176.163 194.004V195H177.159V188.724H176.163V192.528C176.163 193.656 175.323 194.244 174.435 194.244C173.451 194.244 172.983 193.752 172.983 192.648V188.724H171.987V192.696C171.987 194.424 172.923 195.108 174.171 195.108ZM179.196 195H180.204V185.724H179.196V195Z" fill="#44A798"/>
<path d="M248.908 194.244C247.12 194.244 245.74 192.828 245.74 190.752V190.656C245.74 188.616 246.892 187.152 248.884 187.152C250.864 187.152 251.992 188.712 251.992 190.632V190.728C251.992 192.804 250.816 194.244 248.908 194.244ZM248.908 195.108C251.404 195.108 253.072 193.164 253.072 190.74V190.644C253.072 188.232 251.404 186.312 248.884 186.312C246.364 186.312 244.66 188.232 244.66 190.668V190.764C244.66 193.164 246.376 195.108 248.908 195.108ZM257.339 195.108C258.851 195.108 259.943 194.1 260.075 192.744H259.151C259.043 193.764 258.239 194.28 257.351 194.28C256.139 194.28 255.299 193.464 255.299 191.928V191.832C255.299 190.356 256.175 189.444 257.315 189.444C258.179 189.444 258.899 189.816 259.055 190.812H260.039C259.847 189.216 258.623 188.616 257.315 188.616C255.635 188.616 254.267 189.912 254.267 191.832V191.928C254.267 193.872 255.587 195.108 257.339 195.108ZM263.486 195.084C263.894 195.084 264.134 195.024 264.338 194.952V194.112C264.122 194.196 263.882 194.244 263.57 194.244C263.066 194.244 262.79 193.944 262.79 193.332V189.564H264.254V188.724H262.79V187.296H261.794V188.724H260.894V189.564H261.794V193.428C261.794 194.412 262.346 195.084 263.486 195.084Z" fill="#44A798"/>
<path d="M3.656 195.108C4.964 195.108 6.032 194.388 6.032 192.672V186.42H4.988V192.624C4.988 193.776 4.448 194.256 3.596 194.256C3.08 194.256 2.768 194.148 2.456 194.016V194.88C2.684 195 3.008 195.108 3.656 195.108ZM9.61906 195.108C10.5431 195.108 11.1071 194.796 11.5751 194.208V195H12.5711V190.86C12.5711 189.108 11.4791 188.616 10.2791 188.616C9.06706 188.616 7.92706 189.144 7.79506 190.572H8.79106C8.88706 189.804 9.36706 189.444 10.2311 189.444C11.1911 189.444 11.5751 189.864 11.5751 190.86V191.316H10.6751C9.06706 191.316 7.53106 191.808 7.53106 193.26C7.53106 194.544 8.45506 195.108 9.61906 195.108ZM9.71506 194.316C8.83906 194.316 8.52706 193.908 8.52706 193.26C8.52706 192.336 9.45106 192.024 10.7111 192.024H11.5751V192.804C11.5751 193.776 10.7711 194.316 9.71506 194.316ZM14.5275 195H15.5235V191.196C15.5235 190.068 16.3515 189.48 17.2755 189.48C18.2835 189.48 18.7515 189.972 18.7515 191.076V195H19.7475V191.148C19.7475 189.324 18.8355 188.616 17.5395 188.616C16.5075 188.616 15.8115 189.132 15.5235 189.72V188.724H14.5275V195Z" fill="#44A798"/>
<rect x="223" y="6.10352e-05" width="41" height="20" rx="10" fill="#63BDAF"/>
<path d="M234.144 14.0001H235.188V10.2681L237.9 5.42006H236.856L234.696 9.40406L232.452 5.42006H231.276L234.144 10.2561V14.0001ZM240.904 14.1081C242.32 14.1081 243.364 13.4481 243.58 12.1881H242.584C242.452 12.9201 241.888 13.2801 240.916 13.2801C239.632 13.2801 238.948 12.4881 238.9 11.0601H243.628V10.7361C243.628 8.49206 242.26 7.61606 240.808 7.61606C239.08 7.61606 237.868 8.93606 237.868 10.8321V10.9281C237.868 12.8601 239.128 14.1081 240.904 14.1081ZM238.936 10.2561C239.104 9.14006 239.788 8.44406 240.808 8.44406C241.84 8.44406 242.512 8.96006 242.608 10.2561H238.936ZM246.787 14.1081C247.711 14.1081 248.275 13.7961 248.743 13.2081V14.0001H249.739V9.86006C249.739 8.10806 248.647 7.61606 247.447 7.61606C246.235 7.61606 245.095 8.14406 244.963 9.57206H245.959C246.055 8.80406 246.535 8.44406 247.399 8.44406C248.359 8.44406 248.743 8.86406 248.743 9.86006V10.3161H247.843C246.235 10.3161 244.699 10.8081 244.699 12.2601C244.699 13.5441 245.623 14.1081 246.787 14.1081ZM246.883 13.3161C246.007 13.3161 245.695 12.9081 245.695 12.2601C245.695 11.3361 246.619 11.0241 247.879 11.0241H248.743V11.8041C248.743 12.7761 247.939 13.3161 246.883 13.3161ZM251.696 14.0001H252.692V10.5561C252.692 9.00806 253.496 8.61206 254.756 8.55206V7.61606C253.628 7.65206 253.088 8.14406 252.692 8.85206V7.72406H251.696V14.0001Z" fill="white"/>
<path d="M78.64 14.0001H79.588L81.592 7.22006L83.536 14.0001H84.496L86.728 5.42006H85.756L83.992 12.3681L81.976 5.42006H81.232L79.216 12.3441L77.476 5.42006H76.408L78.64 14.0001ZM90.2283 14.1081C91.6443 14.1081 92.6883 13.4481 92.9043 12.1881H91.9083C91.7763 12.9201 91.2123 13.2801 90.2403 13.2801C88.9563 13.2801 88.2723 12.4881 88.2243 11.0601H92.9523V10.7361C92.9523 8.49206 91.5843 7.61606 90.1323 7.61606C88.4043 7.61606 87.1923 8.93606 87.1923 10.8321V10.9281C87.1923 12.8601 88.4523 14.1081 90.2283 14.1081ZM88.2603 10.2561C88.4283 9.14006 89.1123 8.44406 90.1323 8.44406C91.1643 8.44406 91.8363 8.96006 91.9323 10.2561H88.2603ZM97.0487 14.1081C98.4647 14.1081 99.5087 13.4481 99.7247 12.1881H98.7287C98.5967 12.9201 98.0327 13.2801 97.0607 13.2801C95.7767 13.2801 95.0927 12.4881 95.0447 11.0601H99.7727V10.7361C99.7727 8.49206 98.4047 7.61606 96.9527 7.61606C95.2247 7.61606 94.0127 8.93606 94.0127 10.8321V10.9281C94.0127 12.8601 95.2727 14.1081 97.0487 14.1081ZM95.0807 10.2561C95.2487 9.14006 95.9327 8.44406 96.9527 8.44406C97.9847 8.44406 98.6567 8.96006 98.7527 10.2561H95.0807ZM101.301 14.0001H102.297V10.7481L105.081 14.0001H106.293L103.377 10.6401L106.065 7.72406H104.901L102.297 10.6161V4.72406H101.301V14.0001Z" fill="#44A798"/>
<path d="M148.08 14.0001H149.04V6.77606L151.98 14.0001H152.304L155.148 6.77606V14.0001H156.192V5.42006H154.752L152.184 12.1041L149.532 5.42006H148.08V14.0001ZM160.901 13.2801C159.629 13.2801 158.849 12.3441 158.849 10.9161V10.8201C158.849 9.38006 159.641 8.44406 160.901 8.44406C162.149 8.44406 162.953 9.38006 162.953 10.8321V10.9161C162.953 12.3321 162.161 13.2801 160.901 13.2801ZM160.889 14.1081C162.677 14.1081 163.985 12.8001 163.985 10.9041V10.8081C163.985 8.92406 162.677 7.61606 160.901 7.61606C159.125 7.61606 157.817 8.93606 157.817 10.8201V10.9161C157.817 12.7521 159.101 14.1081 160.889 14.1081ZM165.528 14.0001H166.524V10.1961C166.524 9.06806 167.352 8.48006 168.276 8.48006C169.284 8.48006 169.752 8.97206 169.752 10.0761V14.0001H170.748V10.1481C170.748 8.32406 169.836 7.61606 168.54 7.61606C167.508 7.61606 166.812 8.13206 166.524 8.72006V7.72406H165.528V14.0001ZM174.607 14.0841C175.015 14.0841 175.255 14.0241 175.459 13.9521V13.1121C175.243 13.1961 175.003 13.2441 174.691 13.2441C174.187 13.2441 173.911 12.9441 173.911 12.3321V8.56406H175.375V7.72406H173.911V6.29606H172.915V7.72406H172.015V8.56406H172.915V12.4281C172.915 13.4121 173.467 14.0841 174.607 14.0841ZM176.965 14.0001H177.961V10.1961C177.961 9.06806 178.789 8.48006 179.713 8.48006C180.721 8.48006 181.189 8.97206 181.189 10.0761V14.0001H182.185V10.1481C182.185 8.32406 181.273 7.61606 179.977 7.61606C178.945 7.61606 178.249 8.13206 177.961 8.72006V4.72406H176.965V14.0001Z" fill="#44A798"/>
<path d="M4.844 14.0001H5.888V6.27206H8.384V5.42006H2.348V6.27206H4.844V14.0001ZM11.4482 13.2801C10.1762 13.2801 9.39622 12.3441 9.39622 10.9161V10.8201C9.39622 9.38006 10.1882 8.44406 11.4482 8.44406C12.6962 8.44406 13.5002 9.38006 13.5002 10.8321V10.9161C13.5002 12.3321 12.7082 13.2801 11.4482 13.2801ZM11.4362 14.1081C13.2242 14.1081 14.5322 12.8001 14.5322 10.9041V10.8081C14.5322 8.92406 13.2242 7.61606 11.4482 7.61606C9.67222 7.61606 8.36422 8.93606 8.36422 10.8201V10.9161C8.36422 12.7521 9.64822 14.1081 11.4362 14.1081ZM18.4384 14.1081C19.3504 14.1081 20.2264 13.5321 20.5864 12.9201V14.0001H21.5824V4.72406H20.5864V8.73206C20.2264 8.12006 19.5784 7.61606 18.5344 7.61606C16.8064 7.61606 15.6064 8.97206 15.6064 10.8921V10.9881C15.6064 12.9441 16.7944 14.1081 18.4384 14.1081ZM18.5464 13.2801C17.4904 13.2801 16.6384 12.5241 16.6384 10.9401V10.8441C16.6384 9.32006 17.3824 8.44406 18.6304 8.44406C19.8544 8.44406 20.6224 9.20006 20.6224 10.8081V10.9041C20.6224 12.5121 19.7104 13.2801 18.5464 13.2801ZM25.1698 14.1081C26.0938 14.1081 26.6578 13.7961 27.1258 13.2081V14.0001H28.1218V9.86006C28.1218 8.10806 27.0298 7.61606 25.8298 7.61606C24.6178 7.61606 23.4778 8.14406 23.3458 9.57206H24.3418C24.4378 8.80406 24.9178 8.44406 25.7818 8.44406C26.7418 8.44406 27.1258 8.86406 27.1258 9.86006V10.3161H26.2258C24.6178 10.3161 23.0818 10.8081 23.0818 12.2601C23.0818 13.5441 24.0058 14.1081 25.1698 14.1081ZM25.2658 13.3161C24.3898 13.3161 24.0778 12.9081 24.0778 12.2601C24.0778 11.3361 25.0018 11.0241 26.2618 11.0241H27.1258V11.8041C27.1258 12.7761 26.3218 13.3161 25.2658 13.3161ZM30.4665 16.1841H31.4745L34.9425 7.72406H33.9225L32.1825 12.2241L30.2625 7.72406H29.1945L31.6545 13.3521L30.4665 16.1841Z" fill="#44A798"/>
<path d="M2 150.424C7.3938 134.084 28.6517 104.289 44.8331 122.551C68.6228 149.399 72.4367 137.928 87.6662 104.289C102.896 70.649 117.173 32.2037 148.584 104.289C160.007 129.279 169.133 152.296 194.665 113.623C197.711 109.01 252.972 40.5817 255 38.5528" stroke="#63BDAF" stroke-width="3" stroke-linecap="round"/>
<path d="M204.229 65.2297C198.499 82.3579 175.917 113.592 158.727 94.4483C133.456 66.3033 129.404 78.3283 113.226 113.592C97.0477 148.856 81.8806 189.157 48.513 113.592C36.3793 87.3957 26.268 71.2751 2.00061 105.531" stroke="#DEF5F2" stroke-width="3" stroke-linecap="round"/>
<g filter="url(#filter0_d_0_344)">
<circle cx="92" cy="93.0001" r="9" fill="#2DCA73"/>
<circle cx="92" cy="93.0001" r="7.5" stroke="white" stroke-width="3"/>
</g>
<rect x="89" y="41.0001" width="85" height="42" rx="8" fill="#444854"/>
<path d="M102.251 60.0001V56.9161H101.315V56.1481H102.251V55.1641H101.315V54.3961H102.251V51.4321H103.499L104.639 54.3961H106.055V51.4321H107.003V54.3961H107.939V55.1641H107.003V56.1481H107.939V56.9161H107.003V60.0001H105.743L104.603 56.9161H103.187V60.0001H102.251ZM103.163 54.3961H103.667L103.163 52.9081H103.115L103.163 54.3961ZM103.187 56.1481H104.315L103.955 55.1641H103.163L103.187 56.1481ZM105.275 56.1481H106.079L106.055 55.1641H104.915L105.275 56.1481ZM106.055 58.3081H106.103L106.067 56.9161H105.563L106.055 58.3081ZM113.919 60.0001V58.9201H110.115L112.263 56.7841C113.259 55.7881 113.763 54.8641 113.763 54.0121C113.763 53.2321 113.499 52.6081 112.983 52.1401C112.467 51.6721 111.855 51.4441 111.146 51.4441C110.007 51.4441 109.023 52.0081 108.495 53.1001L109.431 53.6521C109.791 52.8961 110.367 52.5241 111.159 52.5241C111.987 52.5241 112.647 53.0761 112.647 54.0241C112.647 54.5881 112.251 55.2721 111.459 56.0641L108.495 59.0881V60.0001H113.919ZM119.868 57.3601V54.9841H118.752V57.3601H115.668L118.68 51.6001H117.48L114.468 57.3601V58.4041H118.752V60.0001H119.868V58.4041H120.888V57.3601H119.868ZM122.293 58.7641L121.813 61.6801H122.713L123.493 58.7641H122.293ZM129.98 58.9681C130.545 58.1761 130.833 57.1201 130.833 55.8001C130.833 54.4801 130.545 53.4241 129.98 52.6321C129.417 51.8401 128.613 51.4441 127.593 51.4441C126.573 51.4441 125.769 51.8401 125.205 52.6321C124.641 53.4241 124.353 54.4801 124.353 55.8001C124.353 57.1201 124.641 58.1761 125.205 58.9681C125.769 59.7601 126.573 60.1561 127.593 60.1561C128.613 60.1561 129.417 59.7601 129.98 58.9681ZM125.469 55.8001C125.469 53.7001 126.237 52.5241 127.593 52.5241C128.949 52.5241 129.729 53.7241 129.729 55.8001C129.729 57.8761 128.949 59.0641 127.593 59.0641C126.237 59.0641 125.469 57.8761 125.469 55.8001ZM137.539 58.9681C138.103 58.1761 138.391 57.1201 138.391 55.8001C138.391 54.4801 138.103 53.4241 137.539 52.6321C136.975 51.8401 136.171 51.4441 135.151 51.4441C134.131 51.4441 133.327 51.8401 132.763 52.6321C132.199 53.4241 131.911 54.4801 131.911 55.8001C131.911 57.1201 132.199 58.1761 132.763 58.9681C133.327 59.7601 134.131 60.1561 135.151 60.1561C136.171 60.1561 136.975 59.7601 137.539 58.9681ZM133.027 55.8001C133.027 53.7001 133.795 52.5241 135.151 52.5241C136.507 52.5241 137.287 53.7241 137.287 55.8001C137.287 57.8761 136.507 59.0641 135.151 59.0641C133.795 59.0641 133.027 57.8761 133.027 55.8001ZM145.098 58.9681C145.662 58.1761 145.95 57.1201 145.95 55.8001C145.95 54.4801 145.662 53.4241 145.098 52.6321C144.534 51.8401 143.73 51.4441 142.71 51.4441C141.69 51.4441 140.886 51.8401 140.322 52.6321C139.758 53.4241 139.47 54.4801 139.47 55.8001C139.47 57.1201 139.758 58.1761 140.322 58.9681C140.886 59.7601 141.69 60.1561 142.71 60.1561C143.73 60.1561 144.534 59.7601 145.098 58.9681ZM140.586 55.8001C140.586 53.7001 141.354 52.5241 142.71 52.5241C144.066 52.5241 144.846 53.7241 144.846 55.8001C144.846 57.8761 144.066 59.0641 142.71 59.0641C141.354 59.0641 140.586 57.8761 140.586 55.8001ZM147.577 60.1321C148.021 60.1321 148.357 59.7841 148.357 59.3521C148.357 58.9201 148.021 58.5721 147.577 58.5721C147.145 58.5721 146.797 58.9201 146.797 59.3521C146.797 59.7841 147.145 60.1321 147.577 60.1321ZM152.271 54.5041C152.187 54.5041 152.055 54.5161 151.875 54.5281L153.855 51.6001H152.583L149.883 55.6441C149.547 56.1121 149.379 56.6761 149.379 57.3241C149.379 58.1521 149.643 58.8361 150.183 59.3641C150.723 59.8921 151.419 60.1561 152.271 60.1561C153.111 60.1561 153.807 59.8921 154.347 59.3641C154.887 58.8361 155.163 58.1521 155.163 57.3241C155.163 56.4961 154.887 55.8121 154.347 55.2961C153.807 54.7681 153.111 54.5041 152.271 54.5041ZM152.271 55.5721C153.327 55.5721 154.059 56.2681 154.059 57.3241C154.059 58.3801 153.327 59.0881 152.271 59.0881C151.215 59.0881 150.483 58.3801 150.483 57.3241C150.483 56.2681 151.203 55.5721 152.271 55.5721ZM160.999 52.5841V51.6001H155.959V52.6441H159.691L157.747 55.2721L158.191 55.9561H158.479C159.523 55.9561 160.243 56.5441 160.243 57.5161C160.243 58.4881 159.523 59.0641 158.479 59.0641C157.507 59.0641 156.907 58.6801 156.655 57.9001L155.719 58.4521C156.139 59.5561 157.195 60.1561 158.479 60.1561C159.283 60.1561 159.955 59.9161 160.519 59.4481C161.083 58.9801 161.359 58.3321 161.359 57.5161C161.359 56.1841 160.459 55.2841 159.175 55.0441L160.999 52.5841Z" fill="white"/>
<path d="M104.881 67.4001V73.0001H107.065C107.825 73.0001 108.457 72.7281 108.961 72.1921C109.465 71.6481 109.721 70.9841 109.721 70.2001C109.721 69.4161 109.465 68.7521 108.961 68.2161C108.457 67.6721 107.825 67.4001 107.065 67.4001H104.881ZM105.625 72.2961V68.1041H107.065C107.633 68.1041 108.105 68.3041 108.465 68.7041C108.825 69.1041 109.009 69.6001 109.009 70.2001C109.009 70.8001 108.825 71.2961 108.465 71.6961C108.105 72.0961 107.633 72.2961 107.065 72.2961H105.625ZM114.391 71.3201C114.407 71.2161 114.415 71.1121 114.415 71.0081C114.415 70.4241 114.231 69.9281 113.855 69.5201C113.487 69.1041 113.007 68.8961 112.423 68.8961C111.807 68.8961 111.303 69.0961 110.911 69.4961C110.519 69.8961 110.327 70.4001 110.327 71.0001C110.327 71.6081 110.527 72.1121 110.919 72.5121C111.319 72.9041 111.839 73.1041 112.471 73.1041C113.255 73.1041 113.839 72.8001 114.231 72.2001L113.639 71.8641C113.399 72.2561 113.015 72.4481 112.487 72.4481C111.727 72.4481 111.175 72.0321 111.039 71.3201H114.391ZM112.423 69.5521C113.063 69.5521 113.591 69.9521 113.711 70.7121H111.039C111.159 70.0081 111.679 69.5521 112.423 69.5521ZM117.088 73.1041C117.864 73.1041 118.544 72.6961 118.888 72.0641L118.296 71.7201C118.072 72.1441 117.624 72.4161 117.088 72.4161C116.688 72.4161 116.352 72.2801 116.08 72.0081C115.816 71.7361 115.68 71.4001 115.68 71.0001C115.68 70.5921 115.816 70.2561 116.08 69.9841C116.352 69.7121 116.688 69.5761 117.088 69.5761C117.624 69.5761 118.072 69.8561 118.272 70.2801L118.856 69.9441C118.544 69.3041 117.88 68.8961 117.088 68.8961C116.488 68.8961 115.984 69.0961 115.584 69.5041C115.184 69.9041 114.984 70.4001 114.984 71.0001C114.984 71.6001 115.184 72.0961 115.584 72.5041C115.984 72.9041 116.488 73.1041 117.088 73.1041ZM121.167 67.9121L121.351 68.5521L122.543 68.2001V73.0001H123.279V67.4001H122.639L121.167 67.9121ZM127.17 70.1041C127.626 69.8161 127.858 69.4081 127.858 68.8801C127.858 68.3761 127.69 67.9841 127.346 67.7121C127.01 67.4321 126.602 67.2961 126.122 67.2961C125.65 67.2961 125.242 67.4321 124.898 67.7121C124.562 67.9841 124.394 68.3761 124.394 68.8801C124.394 69.4081 124.626 69.8161 125.082 70.1041C124.538 70.3841 124.21 70.8641 124.21 71.4641C124.21 71.9761 124.386 72.3761 124.746 72.6721C125.106 72.9601 125.562 73.1041 126.122 73.1041C126.69 73.1041 127.146 72.9601 127.506 72.6721C127.866 72.3761 128.042 71.9761 128.042 71.4641C128.042 70.8641 127.714 70.3841 127.17 70.1041ZM126.122 68.0081C126.698 68.0081 127.114 68.3121 127.114 68.8961C127.114 69.4641 126.674 69.7921 126.122 69.7921C125.57 69.7921 125.13 69.4641 125.13 68.8961C125.13 68.3121 125.554 68.0081 126.122 68.0081ZM126.122 72.3921C125.418 72.3921 124.946 72.0481 124.946 71.4161C124.946 70.8001 125.418 70.4481 126.122 70.4481C126.834 70.4481 127.306 70.8001 127.306 71.4161C127.306 72.0481 126.834 72.3921 126.122 72.3921ZM134.424 69.1761C134.424 68.6241 134.24 68.1681 133.88 67.8241C133.52 67.4721 133.064 67.2961 132.496 67.2961C131.928 67.2961 131.464 67.4721 131.104 67.8241C130.744 68.1681 130.568 68.6241 130.568 69.1761C130.568 69.7281 130.744 70.1841 131.104 70.5361C131.464 70.8801 131.928 71.0561 132.496 71.0561C132.56 71.0561 132.648 71.0481 132.768 71.0401L131.44 73.0001H132.28L134.088 70.3041H134.08C134.312 69.9841 134.424 69.6081 134.424 69.1761ZM132.496 68.0081C133.208 68.0081 133.688 68.4721 133.688 69.1761C133.688 69.8801 133.2 70.3521 132.496 70.3521C131.792 70.3521 131.304 69.8801 131.304 69.1761C131.304 68.4721 131.792 68.0081 132.496 68.0081ZM135.616 69.9441C135.912 69.9441 136.136 69.7121 136.136 69.4241C136.136 69.1361 135.912 68.9041 135.616 68.9041C135.328 68.9041 135.096 69.1361 135.096 69.4241C135.096 69.7121 135.328 69.9441 135.616 69.9441ZM135.616 73.0881C135.912 73.0881 136.136 72.8561 136.136 72.5681C136.136 72.2801 135.912 72.0481 135.616 72.0481C135.328 72.0481 135.096 72.2801 135.096 72.5681C135.096 72.8561 135.328 73.0881 135.616 73.0881ZM140.338 68.0561V67.4001H136.978V68.0961H139.466L138.17 69.8481L138.466 70.3041H138.658C139.354 70.3041 139.834 70.6961 139.834 71.3441C139.834 71.9921 139.354 72.3761 138.658 72.3761C138.01 72.3761 137.61 72.1201 137.442 71.6001L136.818 71.9681C137.098 72.7041 137.802 73.1041 138.658 73.1041C139.194 73.1041 139.642 72.9441 140.018 72.6321C140.394 72.3201 140.578 71.8881 140.578 71.3441C140.578 70.4561 139.978 69.8561 139.122 69.6961L140.338 68.0561ZM142.141 69.5841L142.237 68.0961H144.629V67.4001H141.565L141.357 70.3041H142.941C143.621 70.3041 144.109 70.6961 144.109 71.3441C144.109 71.9921 143.629 72.3761 142.925 72.3761C142.309 72.3761 141.861 72.0881 141.709 71.5441L141.077 71.9041C141.341 72.6801 142.069 73.1041 142.925 73.1041C143.461 73.1041 143.909 72.9441 144.285 72.6321C144.661 72.3201 144.845 71.8881 144.845 71.3441C144.845 70.7921 144.661 70.3681 144.293 70.0561C143.933 69.7441 143.485 69.5841 142.957 69.5841H142.141ZM152.221 73.0001L150.133 67.4001H149.293L147.205 73.0001H147.997L148.453 71.7441H150.973L151.429 73.0001H152.221ZM149.709 68.2881L150.717 71.0481H148.709L149.709 68.2881ZM157.281 67.4001L155.505 70.3601L153.721 67.4001H152.881V73.0001H153.625V68.6321L155.457 71.6721H155.553L157.385 68.6241V73.0001H158.121V67.4001H157.281Z" fill="#9DA8B6"/>
<defs>
<filter id="filter0_d_0_344" x="67" y="72.0001" width="50" height="50" filterUnits="userSpaceOnUse" color-interpolation-filters="sRGB">
<feFlood flood-opacity="0" result="BackgroundImageFix"/>
<feColorMatrix in="SourceAlpha" type="matrix" values="0 0 0 0 0 0 0 0 0 0 0 0 0 0 0 0 0 0 127 0" result="hardAlpha"/>
<feOffset dy="4"/>
<feGaussianBlur stdDeviation="8"/>
<feColorMatrix type="matrix" values="0 0 0 0 0 0 0 0 0 0 0 0 0 0 0 0 0 0 0.08 0"/>
<feBlend mode="normal" in2="BackgroundImageFix" result="effect1_dropShadow_0_344"/>
<feBlend mode="normal" in="SourceGraphic" in2="effect1_dropShadow_0_344" result="shape"/>
</filter>
</defs>
</svg>
