<svg width="684" height="231" viewBox="0 0 684 231" fill="none" xmlns="http://www.w3.org/2000/svg">
<g opacity="0.3">
<mask id="mask0_0_319" style="mask-type:alpha" maskUnits="userSpaceOnUse" x="0" y="0" width="684" height="231">
<rect x="684" y="231" width="684" height="231" rx="24" transform="rotate(-180 684 231)" fill="#006156"/>
</mask>
<g mask="url(#mask0_0_319)">
<path d="M-49.1227 227.288L-49.1227 228.486C-31.2489 212.887 -18.0755 177.828 -15.381 138.578C-14.6624 127.949 -10.6805 121.093 -3.85428 118.728C1.17554 116.991 7.49279 117.71 14.4387 120.853C21.3547 123.997 28.2408 129.207 34.3485 135.943C36.6837 138.518 39.6477 141.452 42.8213 144.565C57.5216 159.026 77.6109 178.846 68.3896 196.421C63.3298 206.031 53.7791 207.827 43.6895 209.714C33.4503 211.63 22.8517 213.606 17.762 224.534C16.2351 227.827 15.1573 231.629 14.5285 235.941L16.3548 235.941C16.9536 231.899 17.9716 228.366 19.4087 225.282C24.1092 215.193 33.8095 213.366 44.0488 211.45C54.1384 209.564 64.5573 207.618 70.0063 197.229C77.1918 183.517 68.1201 168.966 56.803 156.332C48.8092 146.302 38.8094 137.111 32.9712 130.344C12.9118 107.051 -17.3869 99.8659 -21.1593 130.793C-24.9017 161.242 -35.3206 188.996 -49.0928 206.51L-49.1227 227.288Z" fill="#388379"/>
<path d="M276.648 173.367C277.157 169.864 278.235 166.211 279.373 162.349C281.319 155.733 283.295 148.966 282.636 142.409C283.205 136.571 282.756 130.823 279.852 125.554C276.379 119.266 267.966 117.2 261.768 119.805C242.338 127.979 241.32 157.23 219.164 161.271L219.134 161.271C209.883 163.786 199.315 158.577 192.399 152.858C180.692 143.128 171.052 125.404 169.076 109.386C169.106 108.668 169.106 107.919 169.136 107.201C169.315 100.794 169.495 93.698 169.016 86.6623C168.956 74.6865 167.788 62.2317 161.89 52.711C152.609 37.6814 128.777 41.8729 132.999 56.0043C132.49 56.6629 132.041 57.3815 131.741 58.13C130.514 61.064 130.244 66.0639 136.082 73.0099C142.4 80.5546 145.244 87.5904 145.094 95.1351C144.945 101.782 142.46 108.967 137.07 118.428C132.28 126.811 125.214 134.865 117.7 143.368C106.143 156.511 94.1673 170.133 90.7841 185.522C88.7183 194.953 89.0177 205.761 91.7122 217.677C93.0296 223.515 94.9158 229.653 97.3708 236L99.2869 236C96.742 229.503 94.796 223.246 93.4487 217.288C90.814 205.642 90.5146 195.073 92.5206 185.911C95.8139 170.972 107.61 157.529 119.047 144.535C126.592 135.943 133.747 127.829 138.627 119.296C144.196 109.566 146.741 102.111 146.891 95.1651C147.07 87.1413 144.076 79.7462 137.46 71.8422C133.298 66.8723 131.921 62.3814 133.418 58.8186C134.765 55.645 138.328 53.5193 142.998 53.16C148.298 52.7409 156.052 54.8666 160.573 62.1419C168.267 74.5667 167.758 92.6501 167.369 107.171C167.339 108.668 167.279 110.135 167.249 111.572C166.86 128.937 177.189 150.882 191.261 162.559C198.327 168.427 209.254 173.756 218.805 171.151L218.835 171.151C228.386 168.457 234.823 158.547 241.02 148.936C245.511 142.02 249.733 135.493 254.942 131.721C259.912 128.098 265.092 126.661 269.493 127.649C273.205 128.488 276.229 130.943 278.474 134.985C283.115 143.338 280.331 152.769 277.666 161.87C276.498 165.792 275.421 169.505 274.882 173.127C273.355 183.546 274.522 195.821 278.145 207.677C281.588 218.875 287.067 228.785 293.744 235.97L296.229 235.97C289.223 228.905 283.444 218.725 279.882 207.139C276.349 195.702 275.181 183.397 276.648 173.367Z" fill="#388379"/>
<path d="M-22.3869 97.6499C-13.8542 81.273 -5.80044 65.7644 3.81012 60.4651C9.73813 57.2017 14.8278 56.573 19.3786 58.5191C31.6239 63.8483 37.5818 87.4705 42.8511 108.308C46.8031 124.027 50.2462 137.589 55.8149 143.008C62.4914 149.505 69.617 152.05 76.9821 150.583C98.0594 146.421 114.945 111.093 119.616 100.344C127.041 83.3089 125.813 71.1236 115.275 56.7826C113.957 54.9862 112.4 53.1 110.754 51.0941C103.538 42.2919 94.5865 31.3041 98.7181 19.9571C101.952 11.0651 99.9457 1.87364 92.9099 -6.59923C87.0118 -13.6649 77.7605 -19.9223 67.5212 -23.7246C63.8087 -25.1018 59.9466 -26.2994 56.2041 -27.467C42.3122 -31.7783 29.1987 -35.88 20.8456 -48.8737C18.1511 -53.0652 15.4865 -58.0651 13.1213 -63.5141L11.1752 -63.5141C13.6602 -57.6759 16.4745 -52.3467 19.3487 -47.8857C28.061 -34.3531 42.1026 -29.9819 55.6952 -25.7305C59.4076 -24.5629 63.2399 -23.3953 66.9224 -22.018C76.8923 -18.3355 85.8741 -12.2877 91.5626 -5.43158C96.1733 0.107221 100.874 8.90942 97.0715 19.3583C92.5806 31.6634 101.892 43.0703 109.407 52.2318C111.023 54.2078 112.55 56.094 113.867 57.8604C123.957 71.5727 125.125 83.279 117.999 99.6259C115.334 105.734 109.706 117.59 101.922 128.428C93.329 140.344 84.8262 147.2 76.6827 148.816C69.9164 150.134 63.3297 147.769 57.1023 141.721C51.8929 136.661 48.36 122.649 44.6175 107.859C39.2584 86.6022 33.1807 62.5309 20.1271 56.8724C15.0973 54.6868 9.34891 55.3754 2.9718 58.8783C-7.11779 64.4471 -15.2913 80.1653 -23.9438 96.8116C-31.6681 111.662 -39.6021 126.871 -49.0929 135.134L-49.0929 137.469C-38.8237 129.236 -30.5005 113.278 -22.3869 97.6499Z" fill="#388379"/>
<path d="M-32.9555 63.7582C-28.1352 54.0279 -23.5545 44.8365 -17.5067 40.4354C-8.04587 33.5494 2.79221 30.8548 13.0315 32.8607C23.4804 34.8966 32.7616 41.6929 39.1087 51.9621C41.6536 56.0938 44.1086 64.1475 46.7134 72.7101C51.9228 89.8355 57.8209 109.236 68.0602 111.811C71.4134 112.649 74.4373 112.26 77.042 110.643C84.0179 106.332 86.6825 94.1468 88.8082 84.3865C89.7363 80.1651 90.5147 76.5125 91.5027 74.267C96.802 62.1116 95.9039 53.3992 88.3891 43.1599C87.2514 41.633 85.9939 40.136 84.6466 38.5193C81.1437 34.3577 77.4911 30.0764 76.4432 25.1364C75.9343 22.7113 76.3834 20.4059 76.8624 17.9509C77.4312 15.0168 78.03 11.963 76.8025 8.84933C72.0122 -3.5456 54.7371 -8.09641 40.8452 -11.749C36.9831 -12.767 33.3304 -13.725 30.3964 -14.743C11.295 -21.3895 -14.8421 -30.4612 -27.3268 -49.8619C-29.7519 -53.6343 -32.1172 -58.3049 -34.0932 -63.3946L-36.0093 -63.3946C-33.9435 -57.9156 -31.4285 -52.8858 -28.8238 -48.8739C-16.0097 -28.9642 10.4866 -19.7429 29.8275 -13.0364C32.8514 -11.9885 36.534 -11.0305 40.4261 -9.98259C53.9288 -6.4198 70.7248 -2.01869 75.1858 9.53793C76.2037 12.2025 75.6947 14.8372 75.1558 17.6515C74.6768 20.1664 74.1678 22.8011 74.7367 25.5555C75.8744 30.9446 79.6468 35.4056 83.2994 39.7169C84.6167 41.2737 85.8741 42.7707 86.952 44.2377C94.0476 53.8782 94.856 62.0816 89.8561 73.5784C88.8082 75.9735 87.9999 79.716 87.0418 84.0272C84.976 93.4881 82.4012 105.224 76.0839 109.146C73.8684 110.524 71.4134 110.823 68.4793 110.104C59.1981 107.769 53.2102 88.0691 48.4199 72.2012C45.6655 63.1595 43.3003 55.3453 40.6357 51.034C33.9891 40.3456 24.3187 33.25 13.3608 31.1243C2.61256 29.0285 -8.70453 31.8129 -18.5845 38.9983C-24.9916 43.6689 -29.6621 53.0399 -34.5722 62.9798C-38.9134 71.7521 -43.3744 80.704 -49.1527 86.4523L-49.1527 88.9672C-42.5361 83.0692 -37.6859 73.3089 -32.9555 63.7582Z" fill="#388379"/>
<path d="M-36.1581 32.2029L-35.2599 31.4545C-23.8529 22.1433 -10.949 11.6046 4.55958 16.4847C8.39183 17.6823 12.1342 19.6883 15.727 21.6044C23.6609 25.8258 31.8643 30.197 41.7743 26.5444C47.7921 24.3289 49.3789 21.1852 49.6783 18.9098C50.1274 15.2572 47.5526 11.3052 42.433 7.83224C34.6787 2.5629 25.3974 0.197691 16.4156 -2.0777C12.0744 -3.18547 7.58345 -4.32318 3.42187 -5.76027C-13.3442 -11.5985 -35.5293 -19.2929 -49.1518 -34.2327L-49.1518 -31.6279C-35.1701 -17.3169 -13.5837 -9.80209 2.82308 -4.08365C7.07448 -2.61662 11.5953 -1.44898 15.9665 -0.341224C24.7986 1.90424 33.9002 4.23951 41.415 9.32922C45.876 12.383 48.2412 15.7961 47.8819 18.7003C47.5825 21.2152 45.2473 23.3409 41.1456 24.8678C31.9841 28.2509 24.4992 24.2391 16.5653 20.0176C12.8827 18.0715 9.08041 16.0356 5.09847 14.7782L5.06854 14.7782C-11.3682 9.62861 -24.6613 20.4966 -36.4275 30.0772L-37.3257 30.8257C-37.6251 31.0652 -38.0442 31.4245 -38.5532 31.8437C-42.4154 35.0472 -45.9483 37.8316 -49.1518 40.1668L-49.1518 42.4123C-45.0501 39.4782 -40.9484 36.1849 -37.3856 33.2209C-36.8766 32.7718 -36.4575 32.4425 -36.1581 32.2029Z" fill="#388379"/>
<path d="M245.415 111.401C248.732 103.134 249.876 95.6308 248.669 90.2758C246.948 82.653 241.083 78.4569 235.393 74.4233C233.365 72.9569 231.228 71.4312 229.362 69.7888C224.489 65.4899 221.955 60.3358 219.259 54.8702C216.45 49.1761 213.569 43.2942 207.829 38.521L207.699 38.4414C204.616 36.5718 201.748 35.308 199.18 34.6469C188.659 30.0628 176.532 29.8644 172.495 40.2785C167.421 53.4032 185.46 68.1139 190.124 79.434C196.473 94.7976 187.667 109.977 192.146 125.732C195.346 137.004 207.754 144.31 212.829 143.538C213.44 143.45 214.07 143.298 214.677 143.125C215.058 143.11 215.417 143.075 215.796 143.018C220.998 142.24 226.601 138.734 232.026 132.863C237.371 127.122 242.232 119.302 245.415 111.401ZM217.64 55.697C220.289 61.0797 223.03 66.6282 228.167 71.1709C230.099 72.8742 232.257 74.4202 234.35 75.9053C239.997 79.9406 245.34 83.776 246.905 90.6846C249.216 100.89 241.802 119.679 230.729 131.664C225.589 137.228 220.338 140.529 215.557 141.247C210.439 142.022 206.444 137.434 203.664 127.692C201.745 120.946 200.894 113.882 200.093 107.028C198.99 97.8973 197.876 88.4708 194.22 79.5898C192.884 76.3586 191.065 73.2102 189.292 70.187C184.725 62.3801 180.428 54.9863 183.927 45.9494C185.023 43.1306 186.353 40.8534 187.836 39.2481C192.103 34.6301 198.298 34.8512 206.762 39.9404C212.133 44.495 214.943 50.1891 217.64 55.697Z" fill="#388379"/>
<path d="M31.9548 187.199C32.4338 186.42 32.7931 185.552 33.0625 184.624C34.7391 178.756 33.0026 171.84 28.3321 165.672C22.8831 158.487 14.6198 153.816 7.28467 153.816C6.50625 153.816 5.69787 153.876 4.94938 153.966C1.71592 154.415 -0.858857 156.092 -2.74504 158.966C-6.48747 164.714 -6.5773 174.504 -4.78094 180.822C-3.73306 184.474 -0.649295 187.798 3.9015 190.163C8.03314 192.318 13.1229 193.546 17.8832 193.546C24.44 193.516 29.5896 191.211 31.9548 187.199ZM-3.04444 180.343C-4.51147 175.283 -4.90069 165.612 -1.21814 159.954C0.368655 157.529 2.52429 156.122 5.21884 155.762C5.90745 155.673 6.59606 155.613 7.3146 155.613C14.1109 155.613 21.8352 159.984 26.9249 166.75C31.2362 172.469 32.853 178.816 31.356 184.145C31.1464 184.923 30.817 185.642 30.4278 186.301C28.362 189.774 23.8112 191.75 17.8832 191.75C9.38044 191.72 -1.03849 187.378 -3.04444 180.343Z" fill="#388379"/>
<path d="M132.244 189.755C131.983 190.631 131.861 191.563 131.841 192.529C131.74 198.631 135.207 204.862 141.315 209.61C148.438 215.141 157.628 217.513 164.714 215.615C165.466 215.413 166.231 215.146 166.931 214.866C169.938 213.595 171.991 211.309 173.069 208.045C175.196 201.524 172.749 192.044 169.379 186.407C167.421 183.15 163.582 180.738 158.574 179.631C154.026 178.618 148.792 178.75 144.193 179.982C137.868 181.708 133.49 185.268 132.244 189.755ZM167.825 187.319C170.552 191.827 173.431 201.067 171.338 207.486C170.433 210.239 168.715 212.156 166.205 213.2C165.564 213.465 164.914 213.702 164.22 213.887C157.655 215.646 149.063 213.423 142.395 208.205C136.751 203.797 133.546 198.085 133.613 192.55C133.614 191.744 133.746 190.964 133.952 190.227C135.048 186.338 138.932 183.252 144.658 181.717C152.879 179.546 164.067 181.042 167.825 187.319Z" fill="#388379"/>
<path d="M158.7 143.105C157.966 141.834 156.476 140.378 153.601 140.682C150.911 140.964 146.938 142.89 145.102 144.798C142.45 147.544 143.075 153.03 145.204 156.716C146.72 159.343 148.851 160.881 151.054 160.88C151.482 160.887 151.928 160.827 152.37 160.713C154.692 160.135 156.845 157.847 158.286 154.473C159.754 150.998 160.449 146.134 158.7 143.105ZM152.012 159.31C151.687 159.384 151.372 159.425 151.066 159.433C149.388 159.413 147.735 158.164 146.475 155.982C144.126 151.914 144.489 147.553 146.159 145.798C147.727 144.158 151.424 142.391 153.765 142.141C155.442 141.963 156.67 142.525 157.429 143.839C158.713 146.063 158.501 150.197 156.928 153.93C155.687 156.821 153.858 158.838 152.012 159.31Z" fill="#388379"/>
<path d="M236.405 174.498C231.495 174.379 226.615 176.444 221.405 180.786C213.262 187.612 208.561 197.552 204.01 207.132C203.741 207.731 203.471 208.3 203.172 208.869C193.232 229.796 183.831 246.802 170.239 261.712C169.64 262.371 168.981 263.119 168.233 263.927C167.155 265.125 165.927 266.502 164.58 267.969L167.005 267.969C167.933 266.951 168.772 265.993 169.55 265.125C170.269 264.317 170.957 263.568 171.526 262.909C185.268 247.82 194.729 230.695 204.759 209.617C205.028 209.048 205.298 208.45 205.597 207.851C210.058 198.42 214.669 188.69 222.513 182.103C227.363 178.061 231.884 176.115 236.315 176.235C242.123 176.355 247.033 177.881 250.506 180.636C254.279 183.63 256.165 187.851 256.045 193.21C255.865 202.701 251.644 211.294 247.542 219.617C243.47 227.91 239.279 236.443 238.83 246.113C238.471 254.287 239.548 261.832 241.884 267.969L243.8 267.969C241.405 261.981 240.267 254.437 240.626 246.203C241.045 236.922 245.177 228.539 249.159 220.425C253.321 211.953 257.632 203.18 257.841 193.27C258.111 182.013 249.878 174.798 236.405 174.498Z" fill="#388379"/>
</g>
</g>
</svg>
