<svg width="40" height="25" viewBox="0 0 40 25" fill="none" xmlns="http://www.w3.org/2000/svg">
<path fill-rule="evenodd" clip-rule="evenodd" d="M14.3691 21.7366H25.0184V2.60162H14.3691V21.7366Z" fill="#FF5F00"/>
<path fill-rule="evenodd" clip-rule="evenodd" d="M15.0433 12.1694C15.0433 8.28736 16.8612 4.83023 19.692 2.60188C17.6216 0.972199 15.0095 0 12.1703 0C5.44888 0 0 5.44851 0 12.1694C0 18.8903 5.44888 24.3388 12.1703 24.3388C15.0095 24.3388 17.6216 23.3666 19.692 21.7369C16.8612 19.5085 15.0433 16.0514 15.0433 12.1694Z" fill="#EB001B"/>
<path fill-rule="evenodd" clip-rule="evenodd" d="M39.3831 12.1694C39.3831 18.8903 33.9342 24.3388 27.2127 24.3388C24.3735 24.3388 21.7615 23.3666 19.6914 21.7369C22.5222 19.5085 24.3397 16.0514 24.3397 12.1694C24.3397 8.28736 22.5222 4.83023 19.6914 2.60188C21.7615 0.972199 24.3735 0 27.2127 0C33.9342 0 39.3831 5.44851 39.3831 12.1694Z" fill="#F79E1B"/>
</svg>
