<svg width="40" height="40" viewBox="0 0 40 40" fill="none" xmlns="http://www.w3.org/2000/svg">
<path fill-rule="evenodd" clip-rule="evenodd" d="M31.24 17.905L31.2509 17.5002L30.9776 7.33704C30.9738 7.19751 30.9641 7.05941 30.9487 6.92299L30.9357 6.79915C30.7985 5.43256 30.0407 4.24085 28.9374 3.52357C28.8521 3.46671 28.7648 3.41264 28.6755 3.36149C28.5909 3.31146 28.5045 3.26403 28.4164 3.21928C27.8728 2.93279 27.2662 2.74709 26.6206 2.68766C22.2165 2.28226 17.7844 2.28226 13.3803 2.68766C12.7337 2.74718 12.1262 2.93338 11.5819 3.22065C11.4938 3.26546 11.4074 3.31297 11.3228 3.36305C11.2363 3.41272 11.1516 3.46513 11.0688 3.52017C9.95962 4.23905 9.19849 5.43698 9.06414 6.81049L9.05921 6.85772L9.05299 6.91632C9.03712 7.05491 9.02716 7.19523 9.02334 7.33703L8.75 17.5002L8.76094 17.9068L8.7501 18.3336L8.76044 18.7407L8.75018 19.1669L8.75993 19.5722L8.75015 20.0002L9.02078 31.8386C9.085 34.6474 11.2213 36.9735 14.0145 37.276C17.9935 37.7069 22.0074 37.7069 25.9865 37.276C28.7797 36.9735 30.9159 34.6474 30.9802 31.8386L31.2508 20.0002L31.2411 19.5751L31.2509 19.1669L31.2406 18.739L31.2509 18.3336L31.24 17.905ZM28.5072 14.8629L28.4576 7.2014C28.457 7.17696 28.456 7.15263 28.4545 7.12841C28.3555 6.45762 27.9668 5.8786 27.4156 5.52707C27.207 5.41835 26.9755 5.34624 26.7293 5.31958C22.2565 4.83519 17.7445 4.83519 13.2717 5.31958C13.0253 5.34625 12.7938 5.4184 12.5851 5.5272C12.0341 5.87864 11.6456 6.45739 11.5465 7.12785C11.545 7.15225 11.544 7.17677 11.5434 7.20139L11.4937 14.8629C11.5414 16.6352 12.9066 18.0919 14.672 18.2544C18.2168 18.5807 21.7841 18.5808 25.3289 18.2544C27.0943 18.0919 28.4595 16.6352 28.5072 14.8629ZM12.5005 20C12.0403 20 11.6672 20.3731 11.6672 20.8333C11.6672 21.2936 12.0403 21.6666 12.5005 21.6666H14.1672C14.6274 21.6666 15.0005 21.2936 15.0005 20.8333C15.0005 20.3731 14.6274 20 14.1672 20H12.5005ZM11.6672 25.8333C11.6672 25.3731 12.0403 25 12.5005 25H14.1672C14.6274 25 15.0005 25.3731 15.0005 25.8333C15.0005 26.2936 14.6274 26.6666 14.1672 26.6666H12.5005C12.0403 26.6666 11.6672 26.2936 11.6672 25.8333ZM12.5005 30C12.0403 30 11.6672 30.3731 11.6672 30.8333C11.6672 31.2936 12.0403 31.6666 12.5005 31.6666H14.1672C14.6274 31.6666 15.0005 31.2936 15.0005 30.8333C15.0005 30.3731 14.6274 30 14.1672 30H12.5005ZM18.3338 20.8333C18.3338 20.3731 18.7069 20 19.1672 20H20.8338C21.2941 20 21.6672 20.3731 21.6672 20.8333C21.6672 21.2936 21.2941 21.6666 20.8338 21.6666H19.1672C18.7069 21.6666 18.3338 21.2936 18.3338 20.8333ZM19.1672 25C18.7069 25 18.3338 25.3731 18.3338 25.8333C18.3338 26.2936 18.7069 26.6666 19.1672 26.6666H20.8338C21.2941 26.6666 21.6672 26.2936 21.6672 25.8333C21.6672 25.3731 21.2941 25 20.8338 25H19.1672ZM18.3338 30.8333C18.3338 30.3731 18.7069 30 19.1672 30H20.8338C21.2941 30 21.6672 30.3731 21.6672 30.8333C21.6672 31.2936 21.2941 31.6666 20.8338 31.6666H19.1672C18.7069 31.6666 18.3338 31.2936 18.3338 30.8333ZM25.8338 20C25.3736 20 25.0005 20.3731 25.0005 20.8333C25.0005 21.2936 25.3736 21.6666 25.8338 21.6666H27.5005C27.9607 21.6666 28.3338 21.2936 28.3338 20.8333C28.3338 20.3731 27.9607 20 27.5005 20H25.8338ZM25.0005 25.8333C25.0005 25.3731 25.3736 25 25.8338 25H27.5005C27.9607 25 28.3338 25.3731 28.3338 25.8333C28.3338 26.2936 27.9607 26.6666 27.5005 26.6666H25.8338C25.3736 26.6666 25.0005 26.2936 25.0005 25.8333ZM25.8338 30C25.3736 30 25.0005 30.3731 25.0005 30.8333C25.0005 31.2936 25.3736 31.6666 25.8338 31.6666H27.5005C27.9607 31.6666 28.3338 31.2936 28.3338 30.8333C28.3338 30.3731 27.9607 30 27.5005 30H25.8338Z" fill="#006156"/>
</svg>
