<svg width="11" height="19" viewBox="0 0 11 19" fill="none" xmlns="http://www.w3.org/2000/svg">
<path fill-rule="evenodd" clip-rule="evenodd" d="M6.72616 0.0117188L6.71906 4.20515L6.71141 8.39857L6.36619 7.42519C6.36619 7.42464 6.36565 7.42355 6.36565 7.42355L5.91992 16.7587C6.358 17.9964 6.59288 18.6574 6.59561 18.6601C6.59889 18.6634 6.84906 18.6787 7.15058 18.6934C8.06498 18.7388 9.19841 18.836 10.0582 18.943C10.257 18.9676 10.4285 18.9802 10.4389 18.9715C10.4493 18.9622 10.4547 14.6928 10.4515 9.48394L10.4455 0.0128113H8.58608H6.72616V0.0117188Z" fill="#B1060F"/>
<path fill-rule="evenodd" clip-rule="evenodd" d="M0 0V9.48041C0 14.6947 0.00491613 18.9663 0.0114709 18.9723C0.0174795 18.9783 0.340849 18.9483 0.729221 18.9046C1.11759 18.8609 1.65454 18.8068 1.92219 18.7844C2.33296 18.75 3.55871 18.6708 3.70073 18.6702C3.74224 18.6702 3.74442 18.4572 3.75043 14.6549L3.75699 10.6395L4.05359 11.4785C4.09948 11.608 4.11368 11.649 4.15847 11.7751L4.6031 2.44221C4.5086 2.1751 4.55831 2.31548 4.45016 2.00959C4.08582 0.979941 3.7772 0.106515 3.76354 0.0688253L3.73896 0H1.86921H0Z" fill="#B1060F"/>
<path fill-rule="evenodd" clip-rule="evenodd" d="M0 0V5.3214L3.74879 15.2656C3.74934 15.0378 3.74989 14.9143 3.74989 14.6538L3.75644 10.6384L4.05305 11.4774C5.70376 16.1488 6.59084 18.6538 6.5963 18.6588C6.59958 18.662 6.84976 18.6773 7.15128 18.6921C8.06567 18.7374 9.1991 18.8346 10.0589 18.9417C10.2577 18.9663 10.4292 18.9789 10.4396 18.9701C10.4467 18.9636 10.4511 16.8704 10.4527 13.9169L6.72085 3.19054L6.71921 4.20544L6.71156 8.39887L6.36634 7.42549C6.02932 6.47449 5.80427 5.83813 4.45016 2.00904C4.08582 0.979941 3.7772 0.106515 3.76354 0.0688253L3.73896 0H1.86921H0Z" fill="url(#paint0_radial_0_572)"/>
<path fill-rule="evenodd" clip-rule="evenodd" d="M0 0L3.75644 10.6439V10.639L4.05305 11.478C5.70376 16.1494 6.59084 18.6544 6.5963 18.6593C6.59958 18.6626 6.84976 18.6779 7.15128 18.6926C8.06567 18.738 9.1991 18.8352 10.0589 18.9423C10.2572 18.9668 10.4276 18.9794 10.4391 18.9707L6.71156 8.39723V8.39942L6.36634 7.42603C6.02932 6.4745 5.80427 5.83813 4.45016 2.00904C4.08582 0.979941 3.7772 0.106515 3.76354 0.0688253L3.73896 0H1.86921H0Z" fill="#E50914"/>
<path fill-rule="evenodd" clip-rule="evenodd" d="M6.72616 0.0117188L6.71906 4.20515L6.71141 8.39857L6.36619 7.42519C6.36619 7.42464 6.36565 7.42355 6.36565 7.42355L5.91992 16.7587C6.358 17.9964 6.59288 18.6574 6.59561 18.6601C6.59889 18.6634 6.84906 18.6787 7.15058 18.6934C8.06498 18.7388 9.19841 18.836 10.0582 18.943C10.257 18.9676 10.4285 18.9802 10.4389 18.9715C10.4493 18.9622 10.4547 14.6928 10.4515 9.48394L10.4455 0.0128113H8.58608H6.72616V0.0117188Z" fill="#E0E6ED"/>
<path fill-rule="evenodd" clip-rule="evenodd" d="M0 0V9.48041C0 14.6947 0.00491613 18.9663 0.0114709 18.9723C0.0174795 18.9783 0.340849 18.9483 0.729221 18.9046C1.11759 18.8609 1.65454 18.8068 1.92219 18.7844C2.33296 18.75 3.55871 18.6708 3.70073 18.6702C3.74224 18.6702 3.74442 18.4572 3.75043 14.6549L3.75699 10.6395L4.05359 11.4785C4.09948 11.608 4.11368 11.649 4.15847 11.7751L4.6031 2.44221C4.5086 2.1751 4.55831 2.31548 4.45016 2.00959C4.08582 0.979941 3.7772 0.106515 3.76354 0.0688253L3.73896 0H1.86921H0Z" fill="#E0E6ED"/>
<path fill-rule="evenodd" clip-rule="evenodd" d="M0 0V5.3214L3.74879 15.2656C3.74934 15.0378 3.74989 14.9143 3.74989 14.6538L3.75644 10.6384L4.05305 11.4774C5.70376 16.1488 6.59084 18.6538 6.5963 18.6588C6.59958 18.662 6.84976 18.6773 7.15128 18.6921C8.06567 18.7374 9.1991 18.8346 10.0589 18.9417C10.2577 18.9663 10.4292 18.9789 10.4396 18.9701C10.4467 18.9636 10.4511 16.8704 10.4527 13.9169L6.72085 3.19054L6.71921 4.20544L6.71156 8.39887L6.36634 7.42549C6.02932 6.47449 5.80427 5.83813 4.45016 2.00904C4.08582 0.979941 3.7772 0.106515 3.76354 0.0688253L3.73896 0H1.86921H0Z" fill="url(#paint1_radial_0_572)"/>
<path fill-rule="evenodd" clip-rule="evenodd" d="M0 0L3.75644 10.6439V10.639L4.05305 11.478C5.70376 16.1494 6.59084 18.6544 6.5963 18.6593C6.59958 18.6626 6.84976 18.6779 7.15128 18.6926C8.06567 18.738 9.1991 18.8352 10.0589 18.9423C10.2572 18.9668 10.4276 18.9794 10.4391 18.9707L6.71156 8.39723V8.39942L6.36634 7.42603C6.02932 6.4745 5.80427 5.83813 4.45016 2.00904C4.08582 0.979941 3.7772 0.106515 3.76354 0.0688253L3.73896 0H1.86921H0Z" fill="white"/>
<defs>
<radialGradient id="paint0_radial_0_572" cx="0" cy="0" r="1" gradientUnits="userSpaceOnUse" gradientTransform="translate(5.04947 9.37244) rotate(-19.0982) scale(0.688785 25.2301)">
<stop/>
<stop offset="1" stop-opacity="0"/>
</radialGradient>
<radialGradient id="paint1_radial_0_572" cx="0" cy="0" r="1" gradientUnits="userSpaceOnUse" gradientTransform="translate(5.04947 9.37244) rotate(-19.0982) scale(0.688785 25.2301)">
<stop/>
<stop offset="1" stop-opacity="0"/>
</radialGradient>
</defs>
</svg>
