<svg width="28" height="10" viewBox="0 0 28 10" fill="none" xmlns="http://www.w3.org/2000/svg">
<path d="M3.08825 9.99592C2.25444 9.96223 1.57192 9.73313 1.03734 9.30863C0.934799 9.22778 0.692726 8.98352 0.612034 8.88077C0.395177 8.60788 0.248924 8.34341 0.149741 8.04862C-0.151171 7.14235 0.00348758 5.95308 0.595224 4.64758C1.10123 3.53074 1.88292 2.42233 3.24459 0.886055C3.44632 0.66033 4.04309 0 4.04646 0C4.04814 0 4.01452 0.0572735 3.97417 0.124654C3.61947 0.719288 3.31687 1.42005 3.15213 2.02647C2.88652 3.00012 2.91846 3.83396 3.24627 4.4825C3.47153 4.92889 3.85818 5.31465 4.29357 5.52858C5.0551 5.90254 6.16965 5.93286 7.53131 5.61954C7.62545 5.59765 12.2686 4.3629 17.8514 2.87378C23.4325 1.38636 28 0.168452 28 0.170136C28.0017 0.171821 15.0306 5.73241 8.29788 8.61798C7.23208 9.07449 6.9463 9.19072 6.44534 9.36591C5.16437 9.81736 4.0162 10.033 3.08825 9.99592Z" fill="white"/>
</svg>
