<svg width="32" height="32" viewBox="0 0 32 32" fill="none" xmlns="http://www.w3.org/2000/svg">
<rect width="32" height="32" rx="8" fill="white"/>
<path fill-rule="evenodd" clip-rule="evenodd" d="M17.779 22.5278C17.779 23.327 16.9646 24.0027 16.0009 24.0027C15.0372 24.0027 14.2229 23.327 14.2229 22.5278V22.2246H17.779V22.5278ZM23.5768 19.7409L21.9757 18.138V14.1658C21.9757 11.0711 19.7514 8.4432 16.8007 8.05203C15.0929 7.82533 13.3682 8.3463 12.0747 9.48069C10.7732 10.6204 10.0273 12.2607 10.0273 13.98L10.0264 18.138L8.42614 19.7418C8.00919 20.1587 7.88561 20.781 8.11143 21.326C8.33813 21.871 8.86532 22.2239 9.45563 22.2239H12.4454V22.5271C12.4454 24.3211 14.0403 25.78 16.0015 25.78C17.9627 25.78 19.5576 24.3211 19.5576 22.5271V22.2239H22.5465C23.1368 22.2239 23.664 21.8719 23.8898 21.326C24.1165 20.781 23.9929 20.1587 23.5768 19.7409Z" fill="#444854"/>
<circle cx="20.5" cy="10.5" r="4.5" fill="white"/>
<circle cx="20.5" cy="10.5" r="2.5" fill="#EA2222"/>
</svg>
