<svg width="149" height="143" viewBox="0 0 149 143" fill="none" xmlns="http://www.w3.org/2000/svg">
<g opacity="0.8">
<path d="M148.877 17.6876V17.172C141.181 23.8882 135.509 38.9836 134.349 55.8837C134.04 60.4601 132.325 63.4121 129.386 64.4305C127.22 65.1782 124.5 64.8688 121.51 63.5152C118.532 62.1617 115.567 59.9186 112.937 57.0181C111.931 55.9095 110.655 54.6462 109.289 53.3055C102.959 47.0792 94.3094 38.5453 98.2799 30.9783C100.458 26.8402 104.571 26.0668 108.915 25.2546C113.324 24.4296 117.887 23.5788 120.079 18.8736C120.736 17.4556 121.2 15.8184 121.471 13.9621H120.684C120.427 15.7024 119.988 17.2235 119.37 18.5513C117.346 22.8956 113.169 23.6819 108.76 24.507C104.416 25.3191 99.9299 26.157 97.5837 30.6302C94.4899 36.5343 98.3959 42.7993 103.269 48.2394C106.711 52.5578 111.016 56.5154 113.53 59.4288C122.167 69.458 135.213 72.5518 136.837 59.2354C138.448 46.1252 142.934 34.1752 148.864 26.634L148.877 17.6876Z" fill="#006156"/>
<path d="M8.61042 40.9053C8.39128 42.4135 7.9272 43.9863 7.43734 45.6492C6.59942 48.4981 5.74862 51.4115 6.03222 54.2346C5.78729 56.7484 5.98065 59.2235 7.23108 61.4923C8.72644 64.1994 12.3488 65.0889 15.0173 63.9674C23.3835 60.4481 23.8218 47.8536 33.3612 46.1133H33.3741C37.3574 45.0304 41.908 47.2735 44.8858 49.7357C49.9262 53.9252 54.0771 61.5567 54.9279 68.4534C54.915 68.7628 54.915 69.0851 54.9021 69.3945C54.8248 72.1532 54.7474 75.2083 54.9537 78.2377C54.9795 83.3941 55.4822 88.7568 58.0217 92.8562C62.018 99.3275 72.2792 97.5227 70.4616 91.4381C70.6807 91.1545 70.8741 90.8452 71.003 90.5229C71.5316 89.2596 71.6476 87.1068 69.1338 84.116C66.4138 80.8675 65.1892 77.8381 65.2536 74.5896C65.3181 71.7278 66.388 68.6339 68.7084 64.5603C70.771 60.9509 73.8133 57.4832 77.0489 53.8221C82.0249 48.1629 87.1813 42.2975 88.6379 35.6715C89.5274 31.6109 89.3985 26.9572 88.2383 21.8266C87.6711 19.3128 86.859 16.6702 85.8019 13.9373H84.9769C86.0726 16.7346 86.9106 19.4288 87.4907 21.9942C88.6251 27.0088 88.754 31.5593 87.8903 35.504C86.4723 41.9366 81.3932 47.7247 76.4688 53.3194C73.2203 57.0191 70.1393 60.5126 68.0381 64.1865C65.6404 68.3761 64.5446 71.586 64.4802 74.5767C64.4028 78.0315 65.6919 81.2156 68.5408 84.6188C70.3327 86.7587 70.9257 88.6924 70.2811 90.2264C69.701 91.5928 68.167 92.5081 66.156 92.6628C63.8743 92.8433 60.5355 91.928 58.589 88.7955C55.276 83.4457 55.4951 75.6595 55.6627 69.4074C55.6756 68.7628 55.7014 68.1312 55.7143 67.5124C55.8818 60.0356 51.4344 50.5865 45.3756 45.559C42.3334 43.0323 37.6281 40.7377 33.5159 41.8592H33.503C29.3908 43.0194 26.6192 47.2864 23.9508 51.4244C22.0171 54.4022 20.1995 57.2125 17.9564 58.8367C15.8165 60.3965 13.5864 61.0153 11.6914 60.5899C10.0929 60.229 8.7909 59.1719 7.82407 57.4316C5.82596 53.835 7.02483 49.7743 8.17213 45.8555C8.67488 44.1667 9.13895 42.5682 9.37099 41.0084C10.0284 36.5223 9.52569 31.237 7.96587 26.1322C6.48341 21.3109 4.12434 17.044 1.24964 13.9501H0.179688C3.19619 16.9924 5.68415 21.3754 7.21819 26.3642C8.73933 31.2886 9.24209 36.5868 8.61042 40.9053Z" fill="#006156"/>
<path d="M137.365 73.5101C133.691 80.5615 130.224 87.2391 126.086 89.5208C123.533 90.9259 121.342 91.1966 119.382 90.3587C114.11 88.0641 111.545 77.8931 109.276 68.9209C107.574 62.1531 106.092 56.3135 103.694 53.9802C100.819 51.1829 97.7512 50.0871 94.58 50.7188C85.5047 52.5107 78.2342 67.7221 76.2232 72.35C73.0262 79.6849 73.5548 84.9316 78.0924 91.1064C78.6596 91.8799 79.3299 92.692 80.0389 93.5557C83.1457 97.3457 87.0001 102.077 85.2211 106.962C83.8289 110.791 84.6926 114.749 87.722 118.397C90.2615 121.439 94.2449 124.133 98.6536 125.77C100.252 126.363 101.915 126.879 103.526 127.382C109.508 129.238 115.154 131.004 118.751 136.599C119.911 138.404 121.058 140.556 122.077 142.903H122.915C121.845 140.389 120.633 138.094 119.395 136.173C115.644 130.347 109.598 128.465 103.746 126.634C102.147 126.131 100.497 125.629 98.9114 125.036C94.6187 123.45 90.7514 120.846 88.3021 117.894C86.3169 115.509 84.293 111.719 85.9301 107.22C87.8638 101.922 83.8547 97.0105 80.619 93.0658C79.9229 92.215 79.2655 91.4029 78.6983 90.6423C74.354 84.7382 73.8513 79.6978 76.9193 72.6593C78.0666 70.0296 80.4901 64.9247 83.8418 60.2582C87.5415 55.1275 91.2026 52.1755 94.7089 51.4794C97.6223 50.9122 100.458 51.9306 103.14 54.5345C105.383 56.7131 106.904 62.7461 108.515 69.1143C110.823 78.2669 113.44 88.6313 119.06 91.0677C121.226 92.0088 123.701 91.7123 126.447 90.204C130.791 87.8063 134.31 81.0385 138.036 73.8711C141.362 67.4771 144.778 60.9285 148.864 57.3706V56.3651C144.443 59.9101 140.859 66.781 137.365 73.5101Z" fill="#006156"/>
<path d="M141.916 88.0996C139.841 92.2892 137.869 96.2467 135.265 98.1417C131.191 101.107 126.525 102.267 122.116 101.403C117.617 100.527 113.621 97.6003 110.888 93.1787C109.792 91.3997 108.735 87.932 107.613 84.2452C105.37 76.8715 102.831 68.5181 98.422 67.4095C96.9783 67.0485 95.6763 67.2161 94.5547 67.9122C91.5511 69.7685 90.4038 75.0152 89.4886 79.2177C89.0889 81.0353 88.7538 82.608 88.3284 83.5748C86.0467 88.8086 86.4334 92.5599 89.669 96.9686C90.1589 97.6261 90.7003 98.2706 91.2804 98.9667C92.7887 100.759 94.3614 102.602 94.8126 104.729C95.0317 105.773 94.8383 106.766 94.6321 107.823C94.3871 109.086 94.1293 110.401 94.6579 111.742C96.7204 117.079 104.159 119.038 110.14 120.611C111.803 121.049 113.376 121.462 114.639 121.9C122.863 124.762 134.117 128.668 139.493 137.021C140.537 138.645 141.555 140.656 142.406 142.848H143.231C142.342 140.489 141.259 138.323 140.137 136.596C134.62 128.023 123.212 124.053 114.884 121.165C113.582 120.714 111.996 120.301 110.32 119.85C104.507 118.316 97.2748 116.421 95.354 111.445C94.9157 110.298 95.1348 109.164 95.3669 107.952C95.5731 106.869 95.7923 105.735 95.5474 104.549C95.0575 102.228 93.4332 100.307 91.8605 98.4511C91.2933 97.7808 90.7519 97.1362 90.2878 96.5045C87.2326 92.3536 86.8846 88.8215 89.0374 83.8713C89.4886 82.8401 89.8366 81.2287 90.2491 79.3724C91.1386 75.2988 92.2473 70.2455 94.9673 68.5568C95.9212 67.9638 96.9782 67.8349 98.2416 68.1443C102.238 69.1498 104.816 77.6321 106.879 84.4643C108.065 88.3574 109.083 91.722 110.23 93.5783C113.092 98.1804 117.256 101.236 121.974 102.151C126.602 103.053 131.475 101.854 135.729 98.7605C138.487 96.7495 140.498 92.7146 142.613 88.4348C144.482 84.6577 146.402 80.8033 148.89 78.3282V77.2453C146.042 79.7849 143.953 83.9874 141.916 88.0996Z" fill="#006156"/>
<path d="M143.296 101.687L142.909 102.009C137.997 106.018 132.441 110.556 125.764 108.455C124.114 107.939 122.502 107.075 120.955 106.25C117.539 104.433 114.007 102.551 109.74 104.123C107.149 105.077 106.466 106.431 106.337 107.411C106.144 108.983 107.252 110.685 109.457 112.18C112.795 114.449 116.792 115.467 120.659 116.447C122.528 116.924 124.462 117.414 126.254 118.033C133.473 120.547 143.025 123.859 148.89 130.292V129.171C142.87 123.009 133.576 119.773 126.512 117.311C124.681 116.679 122.734 116.176 120.852 115.699C117.049 114.733 113.131 113.727 109.895 111.536C107.974 110.221 106.956 108.751 107.111 107.501C107.239 106.418 108.245 105.503 110.011 104.845C113.956 103.389 117.178 105.116 120.595 106.934C122.18 107.771 123.817 108.648 125.532 109.189H125.545C132.622 111.407 138.345 106.727 143.412 102.602L143.798 102.28C143.927 102.177 144.108 102.022 144.327 101.842C145.99 100.462 147.511 99.2634 148.89 98.2579V97.2911C147.124 98.5544 145.358 99.9724 143.824 101.249C143.605 101.442 143.425 101.584 143.296 101.687Z" fill="#006156"/>
<path d="M22.058 67.5887C20.6297 71.1482 20.1371 74.3788 20.657 76.6845C21.398 79.9666 23.9234 81.7733 26.3731 83.5101C27.2464 84.1415 28.1664 84.7984 28.9698 85.5056C31.0682 87.3565 32.1594 89.5758 33.3198 91.9291C34.5297 94.3808 35.7702 96.9134 38.2415 98.9686L38.2976 99.0028C39.6248 99.8079 40.8596 100.352 41.9656 100.637C46.4954 102.61 51.7168 102.696 53.4552 98.2118C55.6401 92.5607 47.8727 86.2267 45.8646 81.3527C43.1308 74.7375 46.9227 68.2018 44.9941 61.418C43.6163 56.5646 38.2738 53.4188 36.0885 53.7515C35.8254 53.7893 35.5543 53.8548 35.2927 53.929C35.1288 53.9355 34.9743 53.9507 34.811 53.9754C32.571 54.3103 30.1585 55.8197 27.8228 58.3477C25.5214 60.8197 23.4286 64.1866 22.058 67.5887ZM34.0173 91.5731C32.8765 89.2555 31.6965 86.8664 29.4845 84.9105C28.6527 84.1771 27.7232 83.5114 26.8222 82.872C24.3908 81.1345 22.0905 79.4831 21.4164 76.5085C20.4216 72.1143 23.6138 64.0241 28.3815 58.8639C30.5947 56.4684 32.8556 55.0471 34.9142 54.7376C37.1177 54.4041 38.8379 56.3796 40.0346 60.5742C40.861 63.4789 41.2276 66.5205 41.5724 69.4716C42.0472 73.4029 42.5269 77.4616 44.1013 81.2856C44.6763 82.6768 45.4597 84.0324 46.2227 85.3341C48.1892 88.6955 50.0393 91.8791 48.5329 95.7701C48.0609 96.9838 47.4885 97.9643 46.8499 98.6555C45.0128 100.644 42.3453 100.549 38.7008 98.3574C36.3883 96.3963 35.1784 93.9446 34.0173 91.5731Z" fill="#006156"/>
<path d="M113.969 34.951C113.762 35.2862 113.608 35.66 113.492 36.0597C112.77 38.5863 113.518 41.5641 115.529 44.2197C117.875 47.3135 121.433 49.3245 124.591 49.3245C124.926 49.3245 125.274 49.2988 125.596 49.2601C126.989 49.0667 128.097 48.3448 128.909 47.1073C130.521 44.6322 130.559 40.4168 129.786 37.6968C129.335 36.1241 128.007 34.6932 126.048 33.6748C124.269 32.7467 122.077 32.2181 120.028 32.2181C117.204 32.231 114.987 33.2236 113.969 34.951ZM129.038 37.9031C129.67 40.0817 129.838 44.2455 128.252 46.6819C127.569 47.726 126.641 48.3319 125.48 48.4866C125.184 48.5253 124.887 48.5511 124.578 48.5511C121.652 48.5511 118.326 46.669 116.134 43.7556C114.278 41.2934 113.582 38.5605 114.227 36.2659C114.317 35.9308 114.459 35.6214 114.626 35.3378C115.516 33.8424 117.475 32.9916 120.028 32.9916C123.689 33.0045 128.175 34.8737 129.038 37.9031Z" fill="#006156"/>
<path d="M70.7869 33.851C70.8994 33.4739 70.952 33.0727 70.9607 32.6567C71.004 30.0293 69.5111 27.3465 66.8813 25.3019C63.8143 22.9207 59.8572 21.8991 56.8065 22.7165C56.4827 22.8032 56.1532 22.9182 55.8519 23.039C54.5572 23.5861 53.6732 24.5703 53.209 25.9759C52.2931 28.7837 53.3468 32.8654 54.7979 35.2926C55.6407 36.6949 57.2936 37.7334 59.4499 38.21C61.4084 38.6461 63.662 38.5894 65.6419 38.0589C68.3655 37.3158 70.2503 35.7831 70.7869 33.851ZM55.4667 34.8998C54.2927 32.959 53.0532 28.9804 53.9541 26.2167C54.3438 25.0312 55.0835 24.2058 56.1642 23.7561C56.4405 23.642 56.7203 23.5403 57.0191 23.4603C59.8457 22.7029 63.5453 23.66 66.4162 25.9069C68.8465 27.8048 70.2262 30.2644 70.1975 32.6476C70.1971 32.9947 70.1402 33.3303 70.0517 33.6476C69.5796 35.3222 67.9071 36.6512 65.4417 37.3118C61.902 38.2469 57.085 37.6025 55.4667 34.8998Z" fill="#006156"/>
<path d="M59.3938 53.9357C59.7098 54.483 60.3514 55.1098 61.5893 54.9789C62.7476 54.8575 64.4579 54.0281 65.2486 53.2067C66.3904 52.0246 66.1212 49.6624 65.2048 48.0753C64.5518 46.9442 63.6344 46.282 62.6859 46.2823C62.5017 46.2792 62.3097 46.3049 62.1192 46.3541C61.1196 46.6028 60.1925 47.5881 59.5719 49.041C58.9397 50.5371 58.6407 52.6313 59.3938 53.9357ZM62.2735 46.9583C62.4131 46.9263 62.5489 46.9087 62.6808 46.9055C63.4033 46.9141 64.1151 47.4517 64.6575 48.3913C65.6687 50.1426 65.5124 52.0206 64.7933 52.7763C64.1184 53.4822 62.5267 54.2431 61.5186 54.3508C60.7965 54.4272 60.2676 54.1852 59.9411 53.6197C59.3881 52.6619 59.4795 50.8822 60.1569 49.2749C60.6909 48.0301 61.4787 47.1617 62.2735 46.9583Z" fill="#006156"/>
<path d="M35.2305 10.6301C38.6596 10.1789 42.2433 5.24168 43.6226 3.14044C44.2672 2.14783 44.8601 1.15522 45.3887 0.162613L44.5121 0.162613C44.048 1.01342 43.5324 1.87712 42.9781 2.71504C40.2194 6.90462 37.2931 9.58596 35.1274 9.86956C33.3871 10.1016 32.1496 8.72226 31.4535 5.77021C31.0667 4.14594 31.2601 2.16072 31.6726 0.162612L30.8863 0.162612C30.4737 2.19939 30.3062 4.23618 30.7058 5.95069C31.2472 8.28397 32.4847 10.9911 35.2305 10.6301Z" fill="#006156"/>
<path d="M25.9377 40.4198C28.0518 40.4714 30.1531 39.5819 32.3961 37.7127C35.9025 34.7735 37.9264 30.4937 39.8858 26.3686C40.0018 26.1108 40.1178 25.8658 40.2467 25.6209C44.5266 16.6101 48.5744 9.28798 54.4269 2.86824C54.6847 2.58464 54.9683 2.26236 55.2906 1.91431C55.7547 1.39867 56.2832 0.805675 56.8633 0.174015L55.8191 0.174015C55.4195 0.612312 55.0585 1.02483 54.7234 1.39867C54.414 1.74672 54.1175 2.069 53.8726 2.3526C47.9556 8.84968 43.882 16.2234 39.5635 25.2986C39.4475 25.5436 39.3315 25.8014 39.2026 26.0592C37.2818 30.1199 35.2966 34.3095 31.9191 37.1455C29.8308 38.8858 27.8842 39.7237 25.9764 39.6721C23.4755 39.6206 21.3614 38.9631 19.866 37.7772C18.2417 36.488 17.4296 34.6704 17.4812 32.3629C17.5585 28.2765 19.3762 24.5767 21.1422 20.993C22.8954 17.4222 24.7002 13.7483 24.8935 9.58447C25.0482 6.06521 24.5841 2.81667 23.5786 0.174012L22.7536 0.174012C23.7849 2.75222 24.2747 6.00076 24.1201 9.54579C23.9396 13.542 22.1606 17.1515 20.4461 20.645C18.6543 24.2931 16.7979 28.0702 16.7077 32.3371C16.5917 37.1842 20.1367 40.2909 25.9377 40.4198Z" fill="#006156"/>
</g>
</svg>
