<svg width="43" height="43" viewBox="0 0 43 43" fill="none" xmlns="http://www.w3.org/2000/svg">
<path fill-rule="evenodd" clip-rule="evenodd" d="M13.0212 8.3466C18.6633 7.85615 24.3372 7.85615 29.9793 8.3466L32.6851 8.58181C35.2742 8.80688 37.3716 10.7771 37.7581 13.347C38.5709 18.752 38.5709 24.2481 37.7581 29.653C37.687 30.1258 37.558 30.5783 37.3786 31.0034C37.2597 31.2853 36.8928 31.3281 36.6871 31.1017L28.7653 22.3878C28.4074 21.9941 27.8509 21.8486 27.3461 22.0169L22.8117 23.5284L16.2337 16.1281C15.9878 15.8515 15.6388 15.6886 15.2689 15.6777C14.8989 15.6668 14.5409 15.809 14.2792 16.0707L5.47474 24.8752C5.20376 25.1461 4.74162 24.9737 4.72001 24.591C4.50818 20.8395 4.6823 17.0716 5.24239 13.347C5.62885 10.7771 7.7263 8.80688 10.3154 8.58181L13.0212 8.3466ZM25.0836 16.125C25.0836 14.6408 26.2868 13.4375 27.7711 13.4375C29.2553 13.4375 30.4586 14.6408 30.4586 16.125C30.4586 17.6093 29.2553 18.8125 27.7711 18.8125C26.2868 18.8125 25.0836 17.6093 25.0836 16.125Z" fill="#EFC9C8"/>
<path d="M5.30594 28.8446C5.20677 28.9438 5.15966 29.0837 5.17941 29.2226C5.19983 29.3661 5.22083 29.5096 5.24239 29.653C5.62885 32.223 7.7263 34.1932 10.3154 34.4182L13.0212 34.6534C18.6633 35.1439 24.3372 35.1439 29.9793 34.6534L32.6851 34.4182C33.4459 34.3521 34.1642 34.1353 34.8092 33.7968C35.0536 33.6686 35.0948 33.3454 34.9091 33.1412L27.5618 25.0592C27.4425 24.928 27.257 24.8795 27.0888 24.9356L22.821 26.3582C22.311 26.5281 21.7488 26.3779 21.3917 25.9761L15.4874 19.3338C15.3162 19.1412 15.0182 19.1324 14.8359 19.3146L5.30594 28.8446Z" fill="#EFC9C8"/>
</svg>
