<svg width="40" height="40" viewBox="0 0 40 40" fill="none" xmlns="http://www.w3.org/2000/svg">
<g clip-path="url(#clip0_0_984)">
<path d="M9.7828 36.5612C5.51685 35.8635 3.12783 33.8338 3.33467 29.886C3.86555 29.2079 4.37843 28.5388 4.90706 27.881C6.05316 26.4568 7.29713 25.1288 8.73342 23.9944C9.80754 23.1453 10.9638 22.4433 12.2763 22.029C14.329 21.3802 16.3007 21.6384 18.2206 22.5486C18.3735 22.6211 18.5569 22.6652 18.7256 22.6652C20.4476 22.6731 22.1707 22.6664 23.8926 22.6777C24.0434 22.6788 24.2233 22.7456 24.338 22.843C24.5933 23.0615 24.8363 23.3026 25.0466 23.5641C25.8036 24.5027 25.8373 25.4627 25.2018 26.4862C24.8532 27.0466 24.455 27.3568 23.7194 27.324C22.1403 27.2527 20.5567 27.3025 18.9753 27.3025C18.8729 27.3025 18.7706 27.3025 18.6345 27.3025C18.7087 27.6919 18.9179 27.9738 19.1856 28.2071C19.6175 28.5841 20.0854 28.8218 20.7029 28.8014C22.0121 28.7584 23.3235 28.7935 24.6338 28.7811C24.7868 28.7799 24.969 28.7199 25.0871 28.6237C26.8428 27.1847 28.5783 25.7197 30.3441 24.2932C31.3159 23.5087 32.3495 22.8033 33.5519 22.4105C34.635 22.0561 35.6383 22.1716 36.4897 23.0083C36.7304 23.2449 36.7281 23.529 36.4785 23.7543C33.0323 26.8711 29.5861 29.9879 26.1342 33.0979C26.0375 33.1851 25.8688 33.2293 25.7338 33.2293C21.4565 33.2361 17.1791 33.2372 12.9017 33.2281C12.6385 33.2281 12.4777 33.313 12.3157 33.5123C11.5408 34.469 10.7512 35.412 9.96613 36.3596C9.91102 36.4242 9.85253 36.4842 9.7828 36.5612Z" fill="#006156"/>
<path d="M20 10.8309C20.0021 6.69267 23.3647 3.33171 27.5019 3.33331C31.639 3.33491 34.9995 6.69694 35 10.8352C35.0005 14.9692 31.6305 18.337 27.4976 18.3333C23.3583 18.3296 19.9979 14.9676 20 10.8309ZM29.8711 8.18376C29.4715 7.83219 29.0895 7.68228 27.9084 7.40274C27.8993 7.25123 27.8902 7.09545 27.8806 6.93327C27.672 6.93327 27.4843 6.93327 27.2895 6.93327C27.281 7.08478 27.2741 7.21548 27.2666 7.34619C27.2533 7.32538 27.2394 7.30511 27.2261 7.2843C26.7987 7.46249 26.3367 7.58572 25.9516 7.83006C24.9379 8.47344 24.9337 10.3935 26.2114 10.8784C26.5091 10.9915 26.8147 11.0838 27.1114 11.1985C27.177 11.2241 27.2687 11.3014 27.2703 11.3569C27.2821 11.9053 27.2773 12.4543 27.2773 13.0385C26.6216 12.9232 26.1068 12.5951 25.6192 12.2041C25.385 12.497 25.17 12.7664 24.9475 13.0443C25.6277 13.6248 26.4146 13.9385 27.2847 14.0804C27.2847 14.3178 27.2847 14.52 27.2847 14.7339C27.4939 14.7339 27.6822 14.7339 27.9009 14.7339C27.9009 14.505 27.9009 14.2964 27.9009 14.0793C28.0332 14.0585 28.1372 14.0414 28.2413 14.0254C29.5392 13.8211 30.2002 12.92 29.9522 11.6994C29.8028 10.9654 29.2464 10.6565 28.6227 10.418C28.3864 10.3273 28.0428 10.314 27.934 10.1454C27.8118 9.956 27.8977 9.6311 27.8961 9.36543C27.894 9.06934 27.8956 8.77273 27.8956 8.39715C28.4019 8.60415 28.8388 8.78286 29.2938 8.96905C29.4742 8.72365 29.6673 8.46064 29.8711 8.18376Z" fill="#006156"/>
<path d="M27.9179 11.3702C28.6296 11.5233 28.9529 11.8039 28.9204 12.2248C28.8868 12.6607 28.4882 12.9819 27.9179 13.0144C27.9179 12.4724 27.9179 11.9309 27.9179 11.3702Z" fill="#006156"/>
<path d="M27.266 8.4025C27.266 8.94506 27.266 9.47267 27.266 10.0003C26.6707 9.94267 26.3522 9.64712 26.3692 9.17179C26.3858 8.70926 26.7 8.42971 27.266 8.4025Z" fill="#006156"/>
</g>
<defs>
<clipPath id="clip0_0_984">
<rect width="33.3333" height="33.3333" fill="white" transform="translate(3.33398 3.33331)"/>
</clipPath>
</defs>
</svg>
