<svg width="25" height="24" viewBox="0 0 25 24" fill="none" xmlns="http://www.w3.org/2000/svg">
<path d="M13.744 5.22341C13.6389 5.20363 13.1111 5.12201 12.4885 5.12201C11.8658 5.12201 11.338 5.20363 11.233 5.22341C11.1689 5.23331 11.1484 5.17147 11.192 5.1418C11.233 5.11212 12.4885 4.18467 12.4885 4.18467C12.4885 4.18467 13.744 5.11212 13.785 5.1418C13.826 5.17147 13.808 5.23331 13.744 5.22341ZM11.5712 11.211C11.5712 11.211 11.5071 11.2308 11.4866 11.2927C11.7505 11.4856 11.9299 11.9332 12.4782 11.9332C13.0265 11.9332 13.2059 11.4856 13.4698 11.2927C13.4493 11.2308 13.3853 11.211 13.3853 11.211C13.3853 11.211 13.0368 11.2927 12.4782 11.2927C11.9196 11.2927 11.5712 11.211 11.5712 11.211ZM12.4782 10.4666C12.3296 10.4666 12.2886 10.4147 12.1938 10.4147C12.099 10.4147 11.8991 10.4963 11.8556 10.5581C11.8556 10.5878 11.8761 10.62 11.8966 10.6496C12.1169 10.6793 12.2246 10.803 12.4757 10.803C12.7268 10.803 12.8344 10.6818 13.0547 10.6496C13.0855 10.62 13.0957 10.5878 13.0957 10.5581C13.0547 10.4864 12.8626 10.4147 12.7575 10.4147C12.6678 10.4048 12.6371 10.4666 12.4782 10.4666ZM24.9898 12.7469C24.9693 13.0313 24.9488 13.3281 24.9154 13.6026C23.5011 13.8277 22.9963 12.6158 21.5409 12.6653C21.6255 12.9596 21.6998 13.2663 21.7511 13.5705C22.9528 13.5705 23.4293 14.6488 24.7668 14.488C24.6925 14.8145 24.608 15.1385 24.5132 15.465C23.4575 15.5664 23.0886 14.5598 21.8664 14.5796C21.8766 14.7527 21.8766 14.9159 21.8766 15.089C21.8766 15.1805 21.8766 15.2819 21.8664 15.3735C22.9118 15.3636 23.2474 16.291 24.239 16.249C24.1135 16.5754 23.9751 16.8895 23.8265 17.2061C23.1091 17.1665 22.8656 16.2885 21.7895 16.3603C21.7587 16.5853 21.7152 16.8079 21.6639 17.033C22.6017 16.9711 22.8041 17.8071 23.478 17.8689C23.3089 18.1756 23.1193 18.4699 22.9297 18.7543C22.53 18.5515 22.1815 17.9307 21.4308 17.8887C21.5051 17.6537 21.5794 17.4213 21.6306 17.1863C20.9567 17.1863 20.1958 16.9316 19.5526 16.3726C19.7627 15.2226 17.9179 14.0602 17.9179 13.2168C17.9179 12.3116 18.3919 11.8021 18.3919 10.5705C18.3919 9.65293 17.9282 8.66612 17.2415 7.9934C17.1031 7.85985 16.9673 7.75845 16.8084 7.65705C17.4413 8.42127 17.9384 9.31657 17.9384 10.3652C17.9384 11.5251 17.3798 12.136 17.3798 13.2069C17.3798 14.2778 19.0043 15.2028 19.0043 16.3034C19.0043 16.7411 18.8557 17.1591 18.3919 17.9926C19.1196 18.695 20.0702 19.0709 20.68 19.0709C20.8799 19.0709 20.9849 19.0091 21.0592 18.8681C21.1233 18.7345 21.1745 18.6035 21.2283 18.4699C21.8817 18.4897 22.1892 19.0709 22.5479 19.3059C22.3481 19.5606 22.1354 19.8153 21.915 20.0602C21.6716 19.7955 21.3462 19.3578 20.8594 19.2366C20.7748 19.3998 20.68 19.5532 20.5852 19.7139C20.9977 19.8252 21.2822 20.2234 21.5025 20.488C21.2693 20.723 21.0182 20.9456 20.7646 21.1707C20.6057 20.9357 20.3521 20.6315 20.0779 20.4584C19.9728 20.5919 19.8678 20.723 19.7602 20.8566C20.0036 21.0099 20.2034 21.2943 20.3392 21.5194C20.0446 21.7543 19.7371 21.967 19.422 22.1698C19.2631 20.9382 17.5336 20.1022 17.9973 18.6777C17.8385 18.9324 17.6591 19.249 17.6591 19.6249C17.6591 20.6538 18.7993 21.4773 18.8839 22.4963C18.6507 22.6298 18.4099 22.7609 18.1562 22.8821C18.1152 21.7519 16.9109 20.5202 16.9109 19.6026C16.9109 18.5738 18.3151 17.535 18.3151 16.3133C18.3151 15.0915 16.7008 14.2457 16.7008 13.1772C16.7008 12.1088 17.3875 11.4979 17.3875 10.1228C17.3875 9.11377 16.893 8.10717 16.132 7.45425C15.9936 7.34295 15.8681 7.25144 15.699 7.16983C16.4164 8.00577 16.8392 8.75762 16.8392 9.90767C16.8392 11.2012 16.0475 11.9134 16.0475 13.1772C16.0475 14.4411 17.6309 15.1434 17.6309 16.3133C17.6309 17.4831 16.1551 18.4823 16.1551 19.6941C16.1551 20.7947 17.4516 21.8928 17.4746 23.1962C17.1902 23.3174 16.9058 23.4312 16.6086 23.5227C16.7777 22.2094 15.3121 20.8442 15.3121 19.7659C15.3121 18.596 16.8418 17.5771 16.8418 16.3133C16.8418 15.0519 15.2916 14.4608 15.2916 13.1575C15.2916 11.8541 16.2524 11.1319 16.2524 9.69497C16.2524 8.57461 15.6836 7.56801 14.8381 6.94476C14.8176 6.93487 14.8073 6.91509 14.7843 6.90519C14.71 6.84336 14.6356 6.91509 14.6997 6.98681C15.2916 7.69909 15.6067 8.42127 15.6067 9.49217C15.6067 10.8054 14.5101 11.8739 14.5101 13.1476C14.5101 14.6537 15.986 15.0816 15.986 16.3133C15.986 17.5449 14.4025 18.5317 14.4025 19.8475C14.4025 21.0594 15.9014 22.4122 15.6375 23.8071C15.3428 23.8788 15.0354 23.9505 14.7305 24C15.0149 22.2589 13.5492 20.9975 13.5492 19.8549C13.5492 18.6232 15.184 17.5128 15.184 16.3108C15.184 15.1707 14.013 14.8046 13.8542 13.6323C13.8337 13.4691 13.6953 13.3578 13.5159 13.3875C13.2725 13.427 12.9676 13.5804 12.4936 13.5804C12.0093 13.5804 11.7121 13.427 11.4713 13.3875C11.2919 13.3578 11.1535 13.479 11.133 13.6323C10.9742 14.8021 9.80322 15.1707 9.80322 16.3108C9.80322 17.5227 11.4379 18.6232 11.4379 19.8549C11.4379 20.9951 9.97233 22.2465 10.2567 24C9.95183 23.9481 9.64436 23.8788 9.3497 23.8071C9.09603 22.4023 10.5847 21.0569 10.5847 19.8475C10.5847 18.5342 9.00123 17.5474 9.00123 16.3133C9.00123 15.0816 10.4771 14.6537 10.4771 13.1476C10.4771 11.8739 9.38045 10.8054 9.38045 9.49217C9.38045 8.42374 9.69817 7.69909 10.2875 6.98681C10.3413 6.91509 10.2772 6.85326 10.2029 6.90519C10.1824 6.91509 10.1722 6.93487 10.1491 6.94476C9.31639 7.56554 8.73475 8.57461 8.73475 9.69497C8.73475 11.1294 9.6956 11.8541 9.6956 13.1575C9.6956 14.4608 8.14543 15.0519 8.14543 16.3133C8.14543 17.5746 9.67511 18.5936 9.67511 19.7659C9.67511 20.8442 8.20949 22.1995 8.3786 23.5227C8.08394 23.4213 7.79953 23.3199 7.51256 23.1962C7.53305 21.8928 8.83212 20.7922 8.83212 19.6941C8.83212 18.4823 7.35626 17.4955 7.35626 16.3133C7.35626 15.1311 8.93974 14.4386 8.93974 13.1772C8.93974 11.9159 8.148 11.2012 8.148 9.90767C8.148 8.75762 8.57077 8.0033 9.2882 7.16983C9.12934 7.25144 8.99354 7.34295 8.85518 7.45425C8.09675 8.1047 7.59967 9.12366 7.59967 10.1228C7.59967 11.4979 8.28636 12.1088 8.28636 13.1772C8.28636 14.2457 6.67213 15.0915 6.67213 16.3133C6.67213 17.535 8.07625 18.5639 8.07625 19.6026C8.07625 20.5301 6.87455 21.7617 6.83099 22.8821C6.58758 22.7609 6.34673 22.6373 6.10331 22.4963C6.19811 21.4674 7.33832 20.6538 7.33832 19.6249C7.33832 19.249 7.15896 18.9324 7.0001 18.6777C7.46387 20.1022 5.73434 20.9481 5.57548 22.1698C5.25776 21.967 4.95285 21.7519 4.65819 21.5194C4.79656 21.2943 5.00666 21.0099 5.23727 20.8566C5.13221 20.723 5.01691 20.6018 4.91955 20.4584C4.63513 20.6216 4.39172 20.9258 4.23286 21.1707C3.97919 20.958 3.72553 20.723 3.49493 20.488C3.71528 20.2234 4.00225 19.8153 4.41222 19.7139C4.31741 19.5606 4.22261 19.3974 4.13805 19.2366C3.65379 19.3578 3.32582 19.7955 3.0824 20.0602C2.86205 19.8153 2.64938 19.5705 2.44952 19.3059C2.81849 19.0709 3.11315 18.5021 3.77934 18.4699C3.83315 18.6035 3.89464 18.7345 3.94845 18.8681C4.02275 19.0214 4.12781 19.0709 4.32766 19.0709C4.94004 19.0709 5.88808 18.6851 6.61576 17.9926C6.14175 17.1566 6.00338 16.7411 6.00338 16.3034C6.00338 15.2028 7.62786 14.2778 7.62786 13.2069C7.62786 12.136 7.06928 11.5276 7.06928 10.3652C7.06928 9.31657 7.55355 8.42127 8.19924 7.65705C8.04038 7.74856 7.90458 7.85985 7.76622 7.9934C7.06928 8.66612 6.61576 9.66282 6.61576 10.5705C6.61576 11.8021 7.08978 12.3017 7.08978 13.2168C7.08978 14.0627 5.24495 15.2226 5.45506 16.3726C4.81193 16.9439 4.04069 17.1863 3.36681 17.1863C3.43087 17.4213 3.49236 17.6537 3.56667 17.8887C2.80824 17.9283 2.45977 18.5515 2.06775 18.7543C1.86789 18.4699 1.68853 18.1731 1.51942 17.8689C2.1933 17.7972 2.39572 16.9637 3.3335 17.033C3.2797 16.8079 3.2387 16.5853 3.20795 16.3603C2.12155 16.2885 1.87814 17.1739 1.17095 17.2061C1.03259 16.892 0.896792 16.5754 0.771241 16.2514C1.76284 16.291 2.10106 15.366 3.13365 15.3759C3.13365 15.2844 3.13365 15.1929 3.13365 15.0915C3.13365 14.9184 3.1439 14.7552 3.1439 14.582C1.91913 14.5523 1.55017 15.5688 0.497079 15.4674C0.402275 15.1509 0.317721 14.8269 0.243415 14.4905C1.57323 14.6538 2.0575 13.5631 3.2592 13.573C3.31301 13.2663 3.38475 12.9621 3.4693 12.6678C2.01394 12.6059 1.50917 13.8277 0.0948037 13.6026C0.0538075 13.3182 0.0307472 13.0313 0.0102491 12.7469C1.65522 12.92 2.27785 11.6167 3.77678 11.7799C3.91514 11.4336 4.08168 11.0973 4.27129 10.7708C2.39572 10.4567 1.75003 11.9728 0 11.7403C0.148611 5.22341 5.68566 0 12.4782 0C19.281 0 24.8104 5.22341 25 11.7502C23.25 11.9852 22.6043 10.4666 20.7287 10.7832C20.9183 11.1096 21.0772 11.446 21.2232 11.7922C22.7221 11.6167 23.332 12.9299 24.9898 12.7469ZM7.10003 7.67683C6.18274 7.3108 5.06303 7.40231 4.10475 7.9934C3.95613 7.13768 3.47187 6.37345 2.78518 5.91591C2.69038 5.85408 2.59557 5.91591 2.59557 6.01731C2.74162 7.83017 1.64497 9.39819 0.29466 10.7832C1.68853 11.1888 2.86973 9.46002 4.66332 10.0585C5.32694 9.13355 6.14943 8.31739 7.10003 7.67683ZM12.4782 6.58862C11.3175 6.58862 10.3362 7.21929 10.0825 8.04534C10.062 8.10717 10.0928 8.14674 10.1671 8.11707C10.3772 8.02556 10.6103 7.98351 10.8742 7.98351C11.3483 7.98351 11.771 8.15664 12.0145 8.44105C12.1195 8.7873 12.1298 9.29678 12.0042 9.5812C11.8146 9.54163 11.7403 9.39819 11.5507 9.39819C11.3611 9.39819 11.2125 9.53174 10.8871 9.53174C10.5591 9.53174 10.5283 9.3784 10.3182 9.3784C10.0646 9.3784 10.0236 9.62325 10.0236 9.90767C10.0236 11.1591 11.215 12.8805 12.4808 12.8805C13.7465 12.8805 14.938 11.1591 14.938 9.90767C14.938 9.62325 14.8739 9.38829 14.6203 9.35861C14.4947 9.45012 14.3666 9.53174 14.0719 9.53174C13.744 9.53174 13.6594 9.39819 13.4698 9.39819C13.2367 9.39819 13.2597 9.86562 12.9855 9.89777C12.8062 9.4798 12.7959 8.93075 12.9446 8.45095C13.188 8.15664 13.6082 7.9934 14.0848 7.9934C14.3384 7.9934 14.5793 8.03298 14.7919 8.12696C14.8663 8.15664 14.897 8.11707 14.8765 8.05523C14.6203 7.21929 13.6389 6.58862 12.4782 6.58862ZM14.3359 8.37922C14.0515 8.37922 13.7337 8.46084 13.5236 8.6859C13.5031 8.74773 13.5031 8.83924 13.5339 8.88871C14.0412 8.72547 14.4845 8.71558 14.7048 8.95054C14.8201 8.84913 14.8534 8.75763 14.8534 8.65622C14.8534 8.49052 14.6741 8.37922 14.3359 8.37922ZM10.2644 8.95054C10.5078 8.71558 11.0229 8.72547 11.5507 8.91096C11.5712 8.65622 11.0972 8.37181 10.6231 8.37181C10.2747 8.37181 10.1056 8.4831 10.1056 8.64633C10.1158 8.75515 10.1466 8.84913 10.2644 8.95054ZM18.2817 4.71393C17.3645 4.77576 16.5625 5.07997 15.9193 5.58945C16.1935 4.83512 16.542 4.18467 16.9852 3.554C15.8143 3.67519 14.8432 4.08326 14.1258 4.79555L13.5672 3.38087L14.8022 2.32234L13.1444 2.20857L12.4782 0.722176L11.8146 2.20857L10.1594 2.31987L11.3944 3.3784L10.8358 4.79308C10.1184 4.09068 9.14728 3.67271 7.97632 3.55153C8.4196 4.18219 8.76806 4.84501 9.04223 5.58697C8.3991 5.07749 7.59711 4.77329 6.67982 4.71146C7.22814 5.39406 7.71241 6.12613 8.08394 6.91014C8.12494 7.00165 8.20949 7.03133 8.30429 6.98186C9.5598 6.38087 10.9742 6.03462 12.4808 6.03462C13.9797 6.03462 15.3915 6.37098 16.6573 6.98186C16.7521 7.0338 16.8366 7.00165 16.8776 6.91014C17.2363 6.12861 17.7309 5.39654 18.2817 4.71393ZM20.2854 10.0585C22.0893 9.45754 23.2705 11.1789 24.6618 10.7807C23.3115 9.39571 22.2148 7.8277 22.3634 6.01484C22.3737 5.91344 22.2686 5.85161 22.1841 5.91344C21.4974 6.37098 21.0131 7.1352 20.8645 7.99093C19.9139 7.39984 18.7968 7.31822 17.8692 7.67436C18.8173 8.31739 19.6295 9.13355 20.2854 10.0585Z" fill="white"/>
</svg>
